<svg xmlns="http://www.w3.org/2000/svg" xmlns:xlink="http://www.w3.org/1999/xlink" version="1.1" width="771px" height="751px" viewBox="-0.5 -0.5 771 751"><rect width="100%" height="100%" fill="gray" opacity=".5" /><defs/><g><g><ellipse cx="376" cy="143.71" rx="54.136500000000005" ry="54.136500000000005" fill="#33ff33" stroke="rgb(0, 0, 0)" stroke-width="0.98" pointer-events="all"/></g><g><g fill="rgb(0, 0, 0)" font-family="Helvetica" text-anchor="middle" font-size="11.8116px"><text x="375.5" y="134.35">Nutanix Prism</text><text x="375.5" y="148.13">Central</text><text x="375.5" y="161.91">(CDM1, CDM2)</text></g></g><g><ellipse cx="376" cy="313.01" rx="54.136500000000005" ry="54.136500000000005" fill="#33ff33" stroke="rgb(0, 0, 0)" stroke-width="0.98" pointer-events="all"/></g><g><g fill="rgb(0, 0, 0)" font-family="Helvetica" text-anchor="middle" font-size="11.8116px"><text x="375.5" y="310.54">Nutanix Category</text><text x="375.5" y="324.32">(CDM1, CDM2)</text></g></g><g><ellipse cx="376" cy="478.37" rx="54.136500000000005" ry="54.136500000000005" fill="#33ff33" stroke="rgb(0, 0, 0)" stroke-width="0.98" pointer-events="all"/></g><g><g fill="rgb(0, 0, 0)" font-family="Helvetica" text-anchor="middle" font-size="11.8116px"><text x="375.5" y="469.01">Nutanix Category</text><text x="375.5" y="482.79">Value</text><text x="375.5" y="496.57">(CDM1, CDM2)</text></g></g><g><ellipse cx="120.08" cy="312.02" rx="54.136500000000005" ry="54.136500000000005" fill="#e1d5e7" stroke="rgb(0, 0, 0)" stroke-width="0.98" pointer-events="all"/></g><g><g fill="rgb(0, 0, 0)" font-family="Helvetica" text-anchor="middle" font-size="11.8116px"><text x="119.58" y="316.44">Nutanix Cluster 1</text></g></g><g><ellipse cx="622.08" cy="311.04" rx="54.136500000000005" ry="54.136500000000005" fill="#e1d5e7" stroke="rgb(0, 0, 0)" stroke-width="0.98" pointer-events="all"/></g><g><g fill="rgb(0, 0, 0)" font-family="Helvetica" text-anchor="middle" font-size="11.8116px"><text x="621.58" y="315.46">Nutanix Cluster 2</text></g></g><g><ellipse cx="120.08" cy="478.37" rx="54.136500000000005" ry="54.136500000000005" fill="#e1d5e7" stroke="rgb(0, 0, 0)" stroke-width="0.98" pointer-events="all"/></g><g><g fill="rgb(0, 0, 0)" font-family="Helvetica" text-anchor="middle" font-size="11.8116px"><text x="119.58" y="475.9">AHV Virtual </text><text x="119.58" y="489.68">Machine 1</text></g></g><g><ellipse cx="622.08" cy="478.37" rx="54.136500000000005" ry="54.136500000000005" fill="#e1d5e7" stroke="rgb(0, 0, 0)" stroke-width="0.98" pointer-events="all"/></g><g><g fill="rgb(0, 0, 0)" font-family="Helvetica" text-anchor="middle" font-size="11.8116px"><text x="621.58" y="475.9">AHV Virtual</text><text x="621.58" y="489.68"> Machine 2</text></g></g><g><path d="M 376 197.84 L 376 252.6" fill="none" stroke="rgb(0, 0, 0)" stroke-width="0.98" stroke-miterlimit="10" pointer-events="stroke"/><path d="M 376 257.77 L 372.56 250.88 L 376 252.6 L 379.45 250.88 Z" fill="rgb(0, 0, 0)" stroke="rgb(0, 0, 0)" stroke-width="0.98" stroke-miterlimit="10" pointer-events="all"/></g><g><path d="M 323.49 156.27 L 140.95 256.81" fill="none" stroke="rgb(0, 0, 0)" stroke-width="0.98" stroke-miterlimit="10" pointer-events="stroke"/><path d="M 136.42 259.3 L 140.8 252.96 L 140.95 256.81 L 144.12 259 Z" fill="rgb(0, 0, 0)" stroke="rgb(0, 0, 0)" stroke-width="0.98" stroke-miterlimit="10" pointer-events="all"/></g><g><path d="M 430.14 153.55 L 602.07 255.33" fill="none" stroke="rgb(0, 0, 0)" stroke-width="0.98" stroke-miterlimit="10" pointer-events="stroke"/><path d="M 606.51 257.97 L 598.83 257.42 L 602.07 255.33 L 602.34 251.49 Z" fill="rgb(0, 0, 0)" stroke="rgb(0, 0, 0)" stroke-width="0.98" stroke-miterlimit="10" pointer-events="all"/></g><g><path d="M 375.56 365.18 L 375.96 417.97" fill="none" stroke="rgb(0, 0, 0)" stroke-width="0.98" stroke-miterlimit="10" pointer-events="stroke"/><path d="M 375.99 423.13 L 372.5 416.27 L 375.96 417.97 L 379.39 416.22 Z" fill="rgb(0, 0, 0)" stroke="rgb(0, 0, 0)" stroke-width="0.98" stroke-miterlimit="10" pointer-events="all"/></g><g><rect x="94.49" y="542.35" width="59.06" height="29.53" fill="none" stroke="none" pointer-events="all"/></g><g><g fill="rgb(0, 0, 0)" font-family="Helvetica" text-anchor="middle" font-size="11.8116px"><text x="123.52" y="561.54">CDM 1</text></g></g><g><rect x="594.52" y="552.19" width="59.06" height="9.84" fill="none" stroke="none" pointer-events="all"/></g><g><g fill="rgb(0, 0, 0)" font-family="Helvetica" text-anchor="middle" font-size="11.8116px"><text x="623.55" y="561.54">CDM 2</text></g></g><g><path d="M 321.87 478.37 L 180.49 478.37" fill="none" stroke="rgb(0, 0, 0)" stroke-width="0.98" stroke-miterlimit="10" pointer-events="stroke"/><path d="M 175.32 478.37 L 182.21 474.92 L 180.49 478.37 L 182.21 481.81 Z" fill="rgb(0, 0, 0)" stroke="rgb(0, 0, 0)" stroke-width="0.98" stroke-miterlimit="10" pointer-events="all"/></g><g><path d="M 430.14 478.37 L 561.67 478.37" fill="none" stroke="rgb(0, 0, 0)" stroke-width="0.98" stroke-miterlimit="10" pointer-events="stroke"/><path d="M 566.84 478.37 L 559.95 481.81 L 561.67 478.37 L 559.95 474.92 Z" fill="rgb(0, 0, 0)" stroke="rgb(0, 0, 0)" stroke-width="0.98" stroke-miterlimit="10" pointer-events="all"/></g><g><path d="M 39.37 227.37 L 39.37 227.37 L 205.72 227.37 L 205.72 227.37" fill="rgb(255, 255, 255)" stroke="rgb(0, 0, 0)" stroke-width="0.98" stroke-miterlimit="10" pointer-events="all"/><path d="M 39.37 227.37 L 39.37 581.72 L 205.72 581.72 L 205.72 227.37" fill="none" stroke="rgb(0, 0, 0)" stroke-width="0.98" stroke-miterlimit="10" pointer-events="none"/></g><g><path d="M 538.9 227.37 L 538.9 227.37 L 705.25 227.37 L 705.25 227.37" fill="rgb(255, 255, 255)" stroke="rgb(0, 0, 0)" stroke-width="0.98" stroke-miterlimit="10" pointer-events="all"/><path d="M 538.9 227.37 L 538.9 581.72 L 705.25 581.72 L 705.25 227.37" fill="none" stroke="rgb(0, 0, 0)" stroke-width="0.98" stroke-miterlimit="10" pointer-events="none"/></g><g><path d="M 10.83 10.83 L 10.83 10.83 L 758.9 10.83 L 758.9 10.83" fill="rgb(255, 255, 255)" stroke="rgb(0, 0, 0)" stroke-width="1.97" stroke-miterlimit="10" pointer-events="all"/><path d="M 10.83 10.83 L 10.83 739.21 L 758.9 739.21 L 758.9 10.83" fill="none" stroke="rgb(0, 0, 0)" stroke-width="1.97" stroke-miterlimit="10" pointer-events="none"/></g><g><rect x="342.54" y="43.31" width="59.06" height="29.53" fill="none" stroke="none" pointer-events="all"/></g><g><g fill="rgb(0, 0, 0)" font-family="Helvetica" text-anchor="middle" font-size="11.8116px"><text x="371.57" y="62.5">RSC Management Plane</text></g></g><g><path d="M 617.7 366.16 L 617.7 417.97" fill="none" stroke="rgb(0, 0, 0)" stroke-width="0.98" stroke-miterlimit="10" pointer-events="stroke"/><path d="M 617.7 423.13 L 614.25 416.24 L 617.7 417.97 L 621.14 416.24 Z" fill="rgb(0, 0, 0)" stroke="rgb(0, 0, 0)" stroke-width="0.98" stroke-miterlimit="10" pointer-events="all"/></g><g><ellipse cx="481.32" cy="617.16" rx="9.843" ry="9.843" fill="#33ff33" stroke="rgb(0, 0, 0)" stroke-width="0.98" pointer-events="all"/></g><g><ellipse cx="481.32" cy="648.65" rx="9.843" ry="9.843" fill="#e6d0de" stroke="rgb(0, 0, 0)" stroke-width="0.98" pointer-events="all"/></g><g><rect x="517.74" y="605.34" width="136.82" height="25.59" fill="none" stroke="none" pointer-events="all"/></g><g><g fill="rgb(0, 0, 0)" font-family="Helvetica" text-anchor="middle" font-size="11.8116px"><text x="585.65" y="622.56">Multi-Rubrik cluster RSC object</text></g></g><g><rect x="521.68" y="636.84" width="136.82" height="25.59" fill="none" stroke="none" pointer-events="all"/></g><g><g fill="rgb(0, 0, 0)" font-family="Helvetica" text-anchor="middle" font-size="11.8116px"><text x="589.59" y="654.06">Single-Rubrik cluster RSC object</text></g></g><g><rect x="536.44" y="670.31" width="136.82" height="25.59" fill="none" stroke="none" pointer-events="all"/></g><g><g fill="rgb(0, 0, 0)" font-family="Helvetica" text-anchor="middle" font-size="11.8116px"><text x="604.35" y="687.53">Note: In this image, CDM refers to a Rubrik cluster.</text></g></g><g><path d="M 120.08 366.16 L 120.08 417.97" fill="none" stroke="rgb(0, 0, 0)" stroke-width="0.98" stroke-miterlimit="10" pointer-events="stroke"/><path d="M 120.08 423.13 L 116.64 416.24 L 120.08 417.97 L 123.53 416.24 Z" fill="rgb(0, 0, 0)" stroke="rgb(0, 0, 0)" stroke-width="0.98" stroke-miterlimit="10" pointer-events="all"/></g></g></svg>