<svg width="3.429rem" height="3.429rem" viewBox="0 0 49 49"><defs><linearGradient x1="50%" y1="100%" x2="50%" y2="-6.38698527%" id="linearGradient-1"><stop stop-color="#2FCAFF" offset="0%"></stop><stop stop-color="#22DDAC" offset="100%"></stop></linearGradient></defs><g stroke="none" stroke-width="1" fill="none" fill-rule="evenodd"><g transform="translate(-1568.000000, -133.000000)" fill="url(#linearGradient-1)"><g transform="translate(1335.000000, 88.000000)"><g transform="translate(172.000000, 0.000000)"><g transform="translate(61.000000, 45.000000)"><path d="M17.8556137,30.345681 L24.2626495,36.6732313 L30.3634288,30.6484957 L40.1697202,42.8651538 L39.8113682,43.1643889 C35.5963103,46.6164346 30.1879179,48.6956522 24.2847151,48.6956522 L24.2847151,48.6956522 L23.778313,48.6905429 C17.8848926,48.571522 12.5093368,46.3798334 8.35786141,42.8294622 L8.35786141,42.8294622 L17.8556137,30.345681 Z M24.2637908,-9.09494702e-13 C37.6642275,-9.09494702e-13 48.5275816,10.9009783 48.5275816,24.3478261 L48.5275816,24.3478261 L33.9571752,24.3478261 L34.0118828,23.9826527 C34.0918056,23.3703729 34.1150794,22.7401721 34.0762194,22.0975543 L34.0762194,22.0975543 L34.0561949,21.8278217 C33.6366049,17.0795808 29.7447045,13.2506562 24.9799517,12.9541848 L24.9799517,12.9541848 L24.7024979,12.9407735 C19.1695578,12.7501248 14.6246208,17.1942676 14.6246208,22.703587 L14.6246208,22.703587 L14.6336723,23.1218512 C14.6516569,23.5377853 14.6960852,23.9466576 14.7637585,24.3478261 L14.7637585,24.3478261 L-3.63797881e-12,24.3478261 L0.00325067995,23.9451928 C0.21752079,10.6840488 10.9973585,-9.09494702e-13 24.2637908,-9.09494702e-13 Z"></path></g></g></g></g></g></svg>