<svg xmlns="http://www.w3.org/2000/svg" xmlns:xlink="http://www.w3.org/1999/xlink" version="1.1" width="829px" height="939px" viewBox="-0.5 -0.5 829 939"><rect width="100%" height="100%" fill="gray" opacity=".5" /><defs/><g><path d="M 536 10 L 621 80 L 536 150 L 451 80 Z" fill="rgb(255, 255, 255)" stroke="rgb(0, 0, 0)" stroke-miterlimit="10" pointer-events="all"/><g fill="rgb(0, 0, 0)" font-family="Helvetica" text-anchor="middle" font-size="9px"><text x="535.5" y="70">Azure snapshot has </text><text x="535.5" y="81">public access network</text><text x="535.5" y="92"> policy enabled</text></g><rect x="10" y="229" width="170" height="80" fill="rgb(255, 255, 255)" stroke="rgb(0, 0, 0)" pointer-events="all"/><g fill="rgb(0, 0, 0)" font-family="Helvetica" text-anchor="middle" font-size="9px"><text x="94.5" y="255.5">RSC creates a Private DNS </text><text x="94.5" y="266.5">zone in Rubrik</text><text x="94.5" y="277.5"> Exocompute resource group and </text><text x="94.5" y="288.5">links it with Exocompute VNet.</text></g><path d="M 536 190 L 621 260 L 536 330 L 451 260 Z" fill="rgb(255, 255, 255)" stroke="rgb(0, 0, 0)" stroke-miterlimit="10" pointer-events="all"/><g fill="rgb(0, 0, 0)" font-family="Helvetica" text-anchor="middle" font-size="9px"><text x="535.5" y="239">Private DNS zone</text><text x="535.5" y="250">present</text><text x="535.5" y="261">in the Rubrik Exocompute </text><text x="535.5" y="272">resource group </text></g><path d="M 536 150 L 536 183.63" fill="none" stroke="rgb(0, 0, 0)" stroke-miterlimit="10" pointer-events="stroke"/><path d="M 536 188.88 L 532.5 181.88 L 536 183.63 L 539.5 181.88 Z" fill="rgb(0, 0, 0)" stroke="rgb(0, 0, 0)" stroke-miterlimit="10" pointer-events="all"/><path d="M 450 260 L 186.54 259.34" fill="none" stroke="rgb(0, 0, 0)" stroke-miterlimit="10" pointer-events="stroke"/><path d="M 181.29 259.32 L 188.3 255.84 L 186.54 259.34 L 188.28 262.84 Z" fill="rgb(0, 0, 0)" stroke="rgb(0, 0, 0)" stroke-miterlimit="10" pointer-events="all"/><rect x="451" y="399" width="170" height="80" fill="rgb(255, 255, 255)" stroke="rgb(0, 0, 0)" pointer-events="all"/><g fill="rgb(0, 0, 0)" font-family="Helvetica" text-anchor="middle" font-size="9px"><text x="535.5" y="431">RSC creates a disk access in the </text><text x="535.5" y="442">Azure subscription where </text><text x="535.5" y="453">the snapshot is present.</text></g><rect x="451" y="549" width="170" height="80" fill="rgb(255, 255, 255)" stroke="rgb(0, 0, 0)" pointer-events="all"/><g fill="rgb(0, 0, 0)" font-family="Helvetica" text-anchor="middle" font-size="9px"><text x="535.5" y="564.5">In the Rubrik Exocompute resource </text><text x="535.5" y="575.5">group, RSC creates a Private</text><text x="535.5" y="586.5">Endpoint in the Exocompute subnet, and </text><text x="535.5" y="597.5">attaches this endpoint to </text><text x="535.5" y="608.5">the Private DNS zone.</text></g><rect x="451" y="699" width="170" height="80" fill="rgb(255, 255, 255)" stroke="rgb(0, 0, 0)" pointer-events="all"/><g fill="rgb(0, 0, 0)" font-family="Helvetica" text-anchor="middle" font-size="9px"><text x="535.5" y="736.5">RSC configures an entry for the Private </text><text x="535.5" y="747.5">Endpoint in the Private DNS zone.</text></g><rect x="451" y="847" width="170" height="80" fill="rgb(255, 255, 255)" stroke="rgb(0, 0, 0)" pointer-events="all"/><g fill="rgb(0, 0, 0)" font-family="Helvetica" text-anchor="middle" font-size="9px"><text x="535.5" y="873.5">RSC changes the network access policy </text><text x="535.5" y="884.5">of the snapshot to private</text><text x="535.5" y="895.5">and attaches the snapshot</text><text x="535.5" y="906.5"> to the disk access.</text></g><rect x="648" y="160" width="170" height="80" fill="rgb(255, 255, 255)" stroke="rgb(0, 0, 0)" pointer-events="all"/><g fill="rgb(0, 0, 0)" font-family="Helvetica" text-anchor="middle" font-size="9px"><text x="732.5" y="197.5">RSC successfully performs </text><text x="732.5" y="208.5">indexing and archiving operations.</text></g><rect x="12" y="700.5" width="170" height="80" fill="rgb(255, 255, 255)" stroke="rgb(0, 0, 0)" pointer-events="all"/><g fill="rgb(0, 0, 0)" font-family="Helvetica" text-anchor="middle" font-size="9px"><text x="96.5" y="732.5">RSC reverts the network access policy </text><text x="96.5" y="743.5">of the snapshot to its original </text><text x="96.5" y="754.5">policy.</text></g><rect x="12" y="550.5" width="170" height="80" fill="rgb(255, 255, 255)" stroke="rgb(0, 0, 0)" pointer-events="all"/><g fill="rgb(0, 0, 0)" font-family="Helvetica" text-anchor="middle" font-size="9px"><text x="96.5" y="582.5">RSC cleans up the disk access, private </text><text x="96.5" y="593.5">endpoint, and private endpoint</text><text x="96.5" y="604.5"> DNS entry, if created.</text></g><path d="M 536 330 L 536 392.63" fill="none" stroke="rgb(0, 0, 0)" stroke-miterlimit="10" pointer-events="stroke"/><path d="M 536 397.88 L 532.5 390.88 L 536 392.63 L 539.5 390.88 Z" fill="rgb(0, 0, 0)" stroke="rgb(0, 0, 0)" stroke-miterlimit="10" pointer-events="all"/><path d="M 360 420 L 444.63 420" fill="none" stroke="rgb(0, 0, 0)" stroke-miterlimit="10" pointer-events="stroke"/><path d="M 449.88 420 L 442.88 423.5 L 444.63 420 L 442.88 416.5 Z" fill="rgb(0, 0, 0)" stroke="rgb(0, 0, 0)" stroke-miterlimit="10" pointer-events="all"/><path d="M 535.5 480 L 535.5 542.63" fill="none" stroke="rgb(0, 0, 0)" stroke-miterlimit="10" pointer-events="stroke"/><path d="M 535.5 547.88 L 532 540.88 L 535.5 542.63 L 539 540.88 Z" fill="rgb(0, 0, 0)" stroke="rgb(0, 0, 0)" stroke-miterlimit="10" pointer-events="all"/><path d="M 535.5 629 L 535.5 691.63" fill="none" stroke="rgb(0, 0, 0)" stroke-miterlimit="10" pointer-events="stroke"/><path d="M 535.5 696.88 L 532 689.88 L 535.5 691.63 L 539 689.88 Z" fill="rgb(0, 0, 0)" stroke="rgb(0, 0, 0)" stroke-miterlimit="10" pointer-events="all"/><path d="M 621 80 L 726 80" fill="none" stroke="rgb(0, 0, 0)" stroke-miterlimit="10" pointer-events="stroke"/><path d="M 726 80 L 726.18 153.39" fill="none" stroke="rgb(0, 0, 0)" stroke-miterlimit="10" pointer-events="stroke"/><path d="M 726.2 158.64 L 722.68 151.65 L 726.18 153.39 L 729.68 151.63 Z" fill="rgb(0, 0, 0)" stroke="rgb(0, 0, 0)" stroke-miterlimit="10" pointer-events="all"/><path d="M 535.44 778 L 535.44 840.63" fill="none" stroke="rgb(0, 0, 0)" stroke-miterlimit="10" pointer-events="stroke"/><path d="M 535.44 845.88 L 531.94 838.88 L 535.44 840.63 L 538.94 838.88 Z" fill="rgb(0, 0, 0)" stroke="rgb(0, 0, 0)" stroke-miterlimit="10" pointer-events="all"/><rect x="527" y="150" width="60" height="30" fill="none" stroke="none" pointer-events="all"/><g fill="rgb(0, 0, 0)" font-family="Helvetica" text-anchor="middle" font-size="9px"><text x="556.5" y="168">No</text></g><rect x="621" y="53" width="60" height="30" fill="none" stroke="none" pointer-events="all"/><g fill="rgb(0, 0, 0)" font-family="Helvetica" text-anchor="middle" font-size="9px"><text x="650.5" y="71">Yes</text></g><rect x="394" y="233" width="60" height="30" fill="none" stroke="none" pointer-events="all"/><g fill="rgb(0, 0, 0)" font-family="Helvetica" text-anchor="middle" font-size="9px"><text x="423.5" y="251">No</text></g><rect x="529" y="340" width="60" height="30" fill="none" stroke="none" pointer-events="all"/><g fill="rgb(0, 0, 0)" font-family="Helvetica" text-anchor="middle" font-size="9px"><text x="558.5" y="358">Yes</text></g><rect x="12" y="847.5" width="170" height="80" fill="rgb(255, 255, 255)" stroke="rgb(0, 0, 0)" pointer-events="all"/><g fill="rgb(0, 0, 0)" font-family="Helvetica" text-anchor="middle" font-size="9px"><text x="96.5" y="885">RSC successfully performs </text><text x="96.5" y="896">indexing and archiving operations.</text></g><path d="M 97 847.5 L 97 786.87" fill="none" stroke="rgb(0, 0, 0)" stroke-miterlimit="10" pointer-events="stroke"/><path d="M 97 781.62 L 100.5 788.62 L 97 786.87 L 93.5 788.62 Z" fill="rgb(0, 0, 0)" stroke="rgb(0, 0, 0)" stroke-miterlimit="10" pointer-events="all"/><path d="M 97 701.5 L 97 637.87" fill="none" stroke="rgb(0, 0, 0)" stroke-miterlimit="10" pointer-events="stroke"/><path d="M 97 632.62 L 100.5 639.62 L 97 637.87 L 93.5 639.62 Z" fill="rgb(0, 0, 0)" stroke="rgb(0, 0, 0)" stroke-miterlimit="10" pointer-events="all"/><path d="M 451.17 897.56 L 188.71 899.3" fill="none" stroke="rgb(0, 0, 0)" stroke-miterlimit="10" pointer-events="stroke"/><path d="M 183.46 899.33 L 190.43 895.79 L 188.71 899.3 L 190.48 902.79 Z" fill="rgb(0, 0, 0)" stroke="rgb(0, 0, 0)" stroke-miterlimit="10" pointer-events="all"/><rect x="210" y="550.5" width="170" height="80" fill="rgb(255, 255, 255)" stroke="rgb(0, 0, 0)" pointer-events="all"/><g fill="rgb(0, 0, 0)" font-family="Helvetica" text-anchor="middle" font-size="9px"><text x="294.5" y="582.5">The operation fails.</text><text x="294.5" y="593.5">You can view the error details on the </text><text x="294.5" y="604.5">Events page in the RSC Web UI.</text></g><path d="M 180.74 279.04 L 360 280" fill="none" stroke="rgb(0, 0, 0)" stroke-miterlimit="10" pointer-events="stroke"/><path d="M 360 420 L 360 280" fill="none" stroke="rgb(0, 0, 0)" stroke-miterlimit="10" pointer-events="stroke"/><path d="M 99 360 L 99 310" fill="none" stroke="rgb(0, 0, 0)" stroke-miterlimit="10" pointer-events="stroke"/><path d="M 100 360 L 230 360" fill="none" stroke="rgb(0, 0, 0)" stroke-miterlimit="10" pointer-events="stroke"/><path d="M 230 360 L 230 543.63" fill="none" stroke="rgb(0, 0, 0)" stroke-miterlimit="10" pointer-events="stroke"/><path d="M 230 548.88 L 226.5 541.88 L 230 543.63 L 233.5 541.88 Z" fill="rgb(0, 0, 0)" stroke="rgb(0, 0, 0)" stroke-miterlimit="10" pointer-events="all"/><path d="M 240 740 L 240 630" fill="none" stroke="rgb(0, 0, 0)" stroke-miterlimit="10" pointer-events="stroke"/><path d="M 240 740 L 188.37 739.55" fill="none" stroke="rgb(0, 0, 0)" stroke-miterlimit="10" pointer-events="stroke"/><path d="M 183.12 739.51 L 190.15 736.07 L 188.37 739.55 L 190.09 743.07 Z" fill="rgb(0, 0, 0)" stroke="rgb(0, 0, 0)" stroke-miterlimit="10" pointer-events="all"/><path d="M 451 589 L 386.03 588.84" fill="none" stroke="rgb(0, 0, 0)" stroke-miterlimit="10" pointer-events="stroke"/><path d="M 380.78 588.82 L 387.79 585.34 L 386.03 588.84 L 387.77 592.34 Z" fill="rgb(0, 0, 0)" stroke="rgb(0, 0, 0)" stroke-miterlimit="10" pointer-events="all"/><path d="M 350 740 L 350 636.37" fill="none" stroke="rgb(0, 0, 0)" stroke-miterlimit="10" pointer-events="stroke"/><path d="M 350 631.12 L 353.5 638.12 L 350 636.37 L 346.5 638.12 Z" fill="rgb(0, 0, 0)" stroke="rgb(0, 0, 0)" stroke-miterlimit="10" pointer-events="all"/><path d="M 360 460 L 451 460" fill="none" stroke="rgb(0, 0, 0)" stroke-miterlimit="10" pointer-events="stroke"/><path d="M 300 870 L 451 870" fill="none" stroke="rgb(0, 0, 0)" stroke-miterlimit="10" pointer-events="stroke"/><path d="M 300 870 L 298 637.27" fill="none" stroke="rgb(0, 0, 0)" stroke-miterlimit="10" pointer-events="stroke"/><path d="M 297.96 632.02 L 301.52 638.99 L 298 637.27 L 294.52 639.05 Z" fill="rgb(0, 0, 0)" stroke="rgb(0, 0, 0)" stroke-miterlimit="10" pointer-events="all"/><path d="M 360 460 L 360 543.63" fill="none" stroke="rgb(0, 0, 0)" stroke-miterlimit="10" pointer-events="stroke"/><path d="M 360 548.88 L 356.5 541.88 L 360 543.63 L 363.5 541.88 Z" fill="rgb(0, 0, 0)" stroke="rgb(0, 0, 0)" stroke-miterlimit="10" pointer-events="all"/><path d="M 350 740 L 450.49 740.12" fill="none" stroke="rgb(0, 0, 0)" stroke-miterlimit="10" pointer-events="stroke"/><rect x="181" y="276" width="60" height="30" fill="none" stroke="none" pointer-events="all"/><g fill="rgb(0, 0, 0)" font-family="Helvetica" text-anchor="middle" font-size="9px"><text x="210.5" y="294">Success</text></g><rect x="94" y="318" width="60" height="30" fill="none" stroke="none" pointer-events="all"/><g fill="rgb(0, 0, 0)" font-family="Helvetica" text-anchor="middle" font-size="9px"><text x="123.5" y="336">Failure</text></g><rect x="540" y="494" width="60" height="30" fill="none" stroke="none" pointer-events="all"/><g fill="rgb(0, 0, 0)" font-family="Helvetica" text-anchor="middle" font-size="9px"><text x="569.5" y="512">Success</text></g><rect x="384" y="456" width="60" height="30" fill="none" stroke="none" pointer-events="all"/><g fill="rgb(0, 0, 0)" font-family="Helvetica" text-anchor="middle" font-size="9px"><text x="413.5" y="474">Failure</text></g><rect x="386" y="560" width="60" height="30" fill="none" stroke="none" pointer-events="all"/><g fill="rgb(0, 0, 0)" font-family="Helvetica" text-anchor="middle" font-size="9px"><text x="415.5" y="578">Failure</text></g><rect x="540" y="650" width="60" height="30" fill="none" stroke="none" pointer-events="all"/><g fill="rgb(0, 0, 0)" font-family="Helvetica" text-anchor="middle" font-size="9px"><text x="569.5" y="668">Success</text></g><rect x="540" y="796" width="60" height="30" fill="none" stroke="none" pointer-events="all"/><g fill="rgb(0, 0, 0)" font-family="Helvetica" text-anchor="middle" font-size="9px"><text x="569.5" y="814">Success</text></g><rect x="391" y="893.5" width="60" height="30" fill="none" stroke="none" pointer-events="all"/><g fill="rgb(0, 0, 0)" font-family="Helvetica" text-anchor="middle" font-size="9px"><text x="420.5" y="911.5">Success</text></g><rect x="386" y="712" width="60" height="30" fill="none" stroke="none" pointer-events="all"/><g fill="rgb(0, 0, 0)" font-family="Helvetica" text-anchor="middle" font-size="9px"><text x="415.5" y="730">Failure</text></g><rect x="386" y="842" width="60" height="30" fill="none" stroke="none" pointer-events="all"/><g fill="rgb(0, 0, 0)" font-family="Helvetica" text-anchor="middle" font-size="9px"><text x="415.5" y="860">Failure</text></g><ellipse cx="341" cy="81.5" rx="45" ry="28.5" fill="rgb(255, 255, 255)" stroke="rgb(0, 0, 0)" pointer-events="all"/><g fill="rgb(0, 0, 0)" font-family="Helvetica" text-anchor="middle" font-size="9px"><text x="340.5" y="84.5">Start</text></g><ellipse cx="97" cy="477" rx="45" ry="28.5" fill="rgb(255, 255, 255)" stroke="rgb(0, 0, 0)" pointer-events="all"/><g fill="rgb(0, 0, 0)" font-family="Helvetica" text-anchor="middle" font-size="9px"><text x="96.5" y="480">End</text></g><path d="M 386 80 L 444.63 79.87" fill="none" stroke="rgb(0, 0, 0)" stroke-miterlimit="10" pointer-events="stroke"/><path d="M 449.88 79.86 L 442.89 83.38 L 444.63 79.87 L 442.87 76.38 Z" fill="rgb(0, 0, 0)" stroke="rgb(0, 0, 0)" stroke-miterlimit="10" pointer-events="all"/><path d="M 100 550 L 100.36 512.84" fill="none" stroke="rgb(0, 0, 0)" stroke-miterlimit="10" pointer-events="stroke"/><path d="M 100.41 507.59 L 103.84 514.62 L 100.36 512.84 L 96.84 514.55 Z" fill="rgb(0, 0, 0)" stroke="rgb(0, 0, 0)" stroke-miterlimit="10" pointer-events="all"/></g></svg>