<svg xmlns="http://www.w3.org/2000/svg" xmlns:xlink="http://www.w3.org/1999/xlink" version="1.1" width="661px" height="772px" viewBox="-0.5 -0.5 661 772"><rect width="100%" height="100%" fill="gray" opacity=".5" /><defs/><g><g style="filter: drop-shadow(rgba(0, 0, 0, 0.25) 2px 3px 2px);"><path d="M 24 44 L 24 24 L 634 24 L 634 44" fill="#eeeeee" stroke="#36393d" stroke-miterlimit="10" pointer-events="all"/><path d="M 24 44 L 24 744 L 634 744 L 634 44" fill="none" stroke="#36393d" stroke-miterlimit="10" pointer-events="none"/><path d="M 24 44 L 634 44" fill="none" stroke="#36393d" stroke-miterlimit="10" pointer-events="none"/></g><g style="filter: drop-shadow(rgba(0, 0, 0, 0.25) 2px 3px 2px);"><g fill="rgb(0, 0, 0)" font-family="Helvetica" font-weight="bold" text-anchor="middle" font-size="12px"><text x="328.5" y="38.5">Azure SSO Setup</text></g></g><g style="filter: drop-shadow(rgba(0, 0, 0, 0.25) 2px 3px 2px);"><path d="M 24 64 L 24 44 L 324 44 L 324 64" fill="#3cdacf" stroke="#36393d" stroke-miterlimit="10" pointer-events="all"/><path d="M 24 64 L 24 744 L 324 744 L 324 64" fill="none" stroke="#36393d" stroke-miterlimit="10" pointer-events="none"/><path d="M 24 64 L 324 64" fill="none" stroke="#36393d" stroke-miterlimit="10" pointer-events="none"/></g><g style="filter: drop-shadow(rgba(0, 0, 0, 0.25) 2px 3px 2px);"><g fill="rgb(0, 0, 0)" font-family="Helvetica" font-weight="bold" text-anchor="middle" font-size="12px"><text x="173.5" y="58.5">Rubrik</text></g></g><g style="filter: drop-shadow(rgba(0, 0, 0, 0.25) 2px 3px 2px);"><rect x="64" y="130" width="210" height="40" fill="#3cdacf" stroke="#36393d" pointer-events="all"/></g><g style="filter: drop-shadow(rgba(0, 0, 0, 0.25) 2px 3px 2px);"><g fill="rgb(0, 0, 0)" font-family="Helvetica" text-anchor="middle" font-size="12px"><text x="168.5" y="154.5">Retrieve SAML info</text></g></g><g style="filter: drop-shadow(rgba(0, 0, 0, 0.25) 2px 3px 2px);"><rect x="64" y="222" width="210" height="40" fill="#3cdacf" stroke="#36393d" pointer-events="all"/></g><g style="filter: drop-shadow(rgba(0, 0, 0, 0.25) 2px 3px 2px);"><g fill="rgb(0, 0, 0)" font-family="Helvetica" text-anchor="middle" font-size="12px"><text x="168.5" y="246.5">Configure Azure SSO</text></g></g><g style="filter: drop-shadow(rgba(0, 0, 0, 0.25) 2px 3px 2px);"><path d="M 169 604 L 169 656.63" fill="none" stroke="rgb(0, 0, 0)" stroke-miterlimit="10" pointer-events="stroke"/><path d="M 169 661.88 L 165.5 654.88 L 169 656.63 L 172.5 654.88 Z" fill="rgb(0, 0, 0)" stroke="rgb(0, 0, 0)" stroke-miterlimit="10" pointer-events="all"/></g><g style="filter: drop-shadow(rgba(0, 0, 0, 0.25) 2px 3px 2px);"><rect x="54" y="564" width="230" height="40" fill="#3cdacf" stroke="#36393d" pointer-events="all"/></g><g style="filter: drop-shadow(rgba(0, 0, 0, 0.25) 2px 3px 2px);"><g fill="rgb(0, 0, 0)" font-family="Helvetica" text-anchor="middle" font-size="12px"><text x="168.5" y="588.5">Authorize SSO</text></g></g><g style="filter: drop-shadow(rgba(0, 0, 0, 0.25) 2px 3px 2px);"><rect x="54" y="663" width="230" height="40" fill="#3cdacf" stroke="#36393d" pointer-events="all"/></g><g style="filter: drop-shadow(rgba(0, 0, 0, 0.25) 2px 3px 2px);"><g fill="rgb(0, 0, 0)" font-family="Helvetica" text-anchor="middle" font-size="12px"><text x="168.5" y="687.5">Test connection</text></g></g><g style="filter: drop-shadow(rgba(0, 0, 0, 0.25) 2px 3px 2px);"><path d="M 75.5 197.5 L 79.25 193.75 Q 83 190 90.07 197.07 L 94.04 201.04 Q 98 205 90.93 212.07 L 86.96 216.04 Q 83 220 75.93 212.93 L 71.96 208.96 Q 68 205 71.75 201.25 Z" fill="#125061" stroke="none" pointer-events="all"/></g><g style="filter: drop-shadow(rgba(0, 0, 0, 0.25) 2px 3px 2px);"><g fill="#F5F5F5" font-family="Helvetica" text-anchor="middle" font-size="12px"><text x="82.5" y="209.5">3</text></g></g><g style="filter: drop-shadow(rgba(0, 0, 0, 0.25) 2px 3px 2px);"><path d="M 71.5 539.5 L 75.25 535.75 Q 79 532 86.5 539.5 L 90.25 543.25 Q 94 547 86.5 554.5 L 82.75 558.25 Q 79 562 71.5 554.5 L 67.75 550.75 Q 64 547 67.75 543.25 Z" fill="#125061" stroke="none" pointer-events="all"/></g><g style="filter: drop-shadow(rgba(0, 0, 0, 0.25) 2px 3px 2px);"><g fill="#F5F5F5" font-family="Helvetica" text-anchor="middle" font-size="12px"><text x="78.5" y="551.5">8</text></g></g><g style="filter: drop-shadow(rgba(0, 0, 0, 0.25) 2px 3px 2px);"><path d="M 75.5 105.5 L 79.25 101.75 Q 83 98 90.07 105.07 L 94.04 109.04 Q 98 113 90.93 120.07 L 86.96 124.04 Q 83 128 75.93 120.93 L 71.96 116.96 Q 68 113 71.75 109.25 Z" fill="#125061" stroke="none" pointer-events="all"/></g><g style="filter: drop-shadow(rgba(0, 0, 0, 0.25) 2px 3px 2px);"><g fill="#F5F5F5" font-family="Helvetica" text-anchor="middle" font-size="12px"><text x="82.5" y="117.5">1</text></g></g><g style="filter: drop-shadow(rgba(0, 0, 0, 0.25) 2px 3px 2px);"><path d="M 71.5 638.5 L 75.25 634.75 Q 79 631 86.5 638.5 L 90.25 642.25 Q 94 646 86.5 653.5 L 82.75 657.25 Q 79 661 71.5 653.5 L 67.75 649.75 Q 64 646 67.75 642.25 Z" fill="#125061" stroke="none" pointer-events="all"/></g><g style="filter: drop-shadow(rgba(0, 0, 0, 0.25) 2px 3px 2px);"><g fill="#F5F5F5" font-family="Helvetica" text-anchor="middle" font-size="12px"><text x="78.5" y="650.5">9</text></g></g><g style="filter: drop-shadow(rgba(0, 0, 0, 0.25) 2px 3px 2px);"><path d="M 324 64 L 324 44 L 634 44 L 634 64" fill="#2b94cc" stroke="#006eaf" stroke-miterlimit="10" pointer-events="all"/><path d="M 324 64 L 324 744 L 634 744 L 634 64" fill="none" stroke="#006eaf" stroke-miterlimit="10" pointer-events="none"/><path d="M 324 64 L 634 64" fill="none" stroke="#006eaf" stroke-miterlimit="10" pointer-events="none"/></g><g style="filter: drop-shadow(rgba(0, 0, 0, 0.25) 2px 3px 2px);"><g fill="#F5F5F5" font-family="Helvetica" font-weight="bold" text-anchor="middle" font-size="12px"><text x="478.5" y="58.5">Azure</text></g></g><g style="filter: drop-shadow(rgba(0, 0, 0, 0.25) 2px 3px 2px);"><path d="M 478 322 L 478 371.63" fill="none" stroke="rgb(0, 0, 0)" stroke-miterlimit="10" pointer-events="stroke"/><path d="M 478 376.88 L 474.5 369.88 L 478 371.63 L 481.5 369.88 Z" fill="rgb(0, 0, 0)" stroke="rgb(0, 0, 0)" stroke-miterlimit="10" pointer-events="all"/></g><g style="filter: drop-shadow(rgba(0, 0, 0, 0.25) 2px 3px 2px);"><rect x="363" y="282" width="230" height="40" fill="#2b94cc" stroke="#006eaf" pointer-events="all"/></g><g style="filter: drop-shadow(rgba(0, 0, 0, 0.25) 2px 3px 2px);"><g fill="#F5F5F5" font-family="Helvetica" text-anchor="middle" font-size="12px"><text x="477.5" y="306.5">Upload Rubrik info</text></g></g><g style="filter: drop-shadow(rgba(0, 0, 0, 0.25) 2px 3px 2px);"><path d="M 478 418 L 478 464.63" fill="none" stroke="rgb(0, 0, 0)" stroke-miterlimit="10" pointer-events="stroke"/><path d="M 478 469.88 L 474.5 462.88 L 478 464.63 L 481.5 462.88 Z" fill="rgb(0, 0, 0)" stroke="rgb(0, 0, 0)" stroke-miterlimit="10" pointer-events="all"/></g><g style="filter: drop-shadow(rgba(0, 0, 0, 0.25) 2px 3px 2px);"><rect x="363" y="378" width="230" height="40" fill="#2b94cc" stroke="#006eaf" pointer-events="all"/></g><g style="filter: drop-shadow(rgba(0, 0, 0, 0.25) 2px 3px 2px);"><g fill="#F5F5F5" font-family="Helvetica" text-anchor="middle" font-size="12px"><text x="477.5" y="402.5">Configure attributes</text></g></g><g style="filter: drop-shadow(rgba(0, 0, 0, 0.25) 2px 3px 2px);"><path d="M 478 511 L 478 557.63" fill="none" stroke="rgb(0, 0, 0)" stroke-miterlimit="10" pointer-events="stroke"/><path d="M 478 562.88 L 474.5 555.88 L 478 557.63 L 481.5 555.88 Z" fill="rgb(0, 0, 0)" stroke="rgb(0, 0, 0)" stroke-miterlimit="10" pointer-events="all"/></g><g style="filter: drop-shadow(rgba(0, 0, 0, 0.25) 2px 3px 2px);"><rect x="363" y="471" width="230" height="40" fill="#2b94cc" stroke="#006eaf" pointer-events="all"/></g><g style="filter: drop-shadow(rgba(0, 0, 0, 0.25) 2px 3px 2px);"><g fill="#F5F5F5" font-family="Helvetica" text-anchor="middle" font-size="12px"><text x="477.5" y="495.5">Create roles</text></g></g><g style="filter: drop-shadow(rgba(0, 0, 0, 0.25) 2px 3px 2px);"><rect x="363" y="564" width="230" height="40" fill="#2b94cc" stroke="#006eaf" pointer-events="all"/></g><g style="filter: drop-shadow(rgba(0, 0, 0, 0.25) 2px 3px 2px);"><g fill="#F5F5F5" font-family="Helvetica" text-anchor="middle" font-size="12px"><text x="477.5" y="588.5">Assign roles</text></g></g><g style="filter: drop-shadow(rgba(0, 0, 0, 0.25) 2px 3px 2px);"><path d="M 376.5 258.5 L 380.25 254.75 Q 384 251 391.07 258.07 L 395.04 262.04 Q 399 266 391.93 273.07 L 387.96 277.04 Q 384 281 376.93 273.93 L 372.96 269.96 Q 369 266 372.75 262.25 Z" fill="#125061" stroke="none" pointer-events="all"/></g><g style="filter: drop-shadow(rgba(0, 0, 0, 0.25) 2px 3px 2px);"><g fill="#F5F5F5" font-family="Helvetica" text-anchor="middle" font-size="12px"><text x="383.5" y="270.5">4</text></g></g><g style="filter: drop-shadow(rgba(0, 0, 0, 0.25) 2px 3px 2px);"><path d="M 375.5 354.5 L 379.25 350.75 Q 383 347 390.07 354.07 L 394.04 358.04 Q 398 362 390.93 369.07 L 386.96 373.04 Q 383 377 375.93 369.93 L 371.96 365.96 Q 368 362 371.75 358.25 Z" fill="#125061" stroke="none" pointer-events="all"/></g><g style="filter: drop-shadow(rgba(0, 0, 0, 0.25) 2px 3px 2px);"><g fill="#F5F5F5" font-family="Helvetica" text-anchor="middle" font-size="12px"><text x="382.5" y="366.5">5</text></g></g><g style="filter: drop-shadow(rgba(0, 0, 0, 0.25) 2px 3px 2px);"><path d="M 374.5 448.5 L 378.25 444.75 Q 382 441 389.5 448.5 L 393.25 452.25 Q 397 456 389.5 463.5 L 385.75 467.25 Q 382 471 374.5 463.5 L 370.75 459.75 Q 367 456 370.75 452.25 Z" fill="#125061" stroke="none" pointer-events="all"/></g><g style="filter: drop-shadow(rgba(0, 0, 0, 0.25) 2px 3px 2px);"><g fill="#F5F5F5" font-family="Helvetica" text-anchor="middle" font-size="12px"><text x="381.5" y="460.5">6</text></g></g><g style="filter: drop-shadow(rgba(0, 0, 0, 0.25) 2px 3px 2px);"><rect x="363" y="130" width="230" height="40" fill="#2b94cc" stroke="#006eaf" pointer-events="all"/></g><g style="filter: drop-shadow(rgba(0, 0, 0, 0.25) 2px 3px 2px);"><g fill="#F5F5F5" font-family="Helvetica" text-anchor="middle" font-size="12px"><text x="477.5" y="154.5">Create app</text></g></g><g style="filter: drop-shadow(rgba(0, 0, 0, 0.25) 2px 3px 2px);"><path d="M 374.5 105.5 L 378.25 101.75 Q 382 98 389.07 105.07 L 393.04 109.04 Q 397 113 389.93 120.07 L 385.96 124.04 Q 382 128 374.93 120.93 L 370.96 116.96 Q 367 113 370.75 109.25 Z" fill="#125061" stroke="none" pointer-events="all"/></g><g style="filter: drop-shadow(rgba(0, 0, 0, 0.25) 2px 3px 2px);"><g fill="#F5F5F5" font-family="Helvetica" text-anchor="middle" font-size="12px"><text x="381.5" y="117.5">2</text></g></g><g style="filter: drop-shadow(rgba(0, 0, 0, 0.25) 2px 3px 2px);"><path d="M 374.5 539.5 L 378.25 535.75 Q 382 532 389.5 539.5 L 393.25 543.25 Q 397 547 389.5 554.5 L 385.75 558.25 Q 382 562 374.5 554.5 L 370.75 550.75 Q 367 547 370.75 543.25 Z" fill="#125061" stroke="none" pointer-events="all"/></g><g style="filter: drop-shadow(rgba(0, 0, 0, 0.25) 2px 3px 2px);"><g fill="#F5F5F5" font-family="Helvetica" text-anchor="middle" font-size="12px"><text x="381.5" y="551.5">7</text></g></g><g style="filter: drop-shadow(rgba(0, 0, 0, 0.25) 2px 3px 2px);"><path d="M 363 584 L 290.37 584" fill="none" stroke="rgb(0, 0, 0)" stroke-miterlimit="10" pointer-events="stroke"/><path d="M 285.12 584 L 292.12 580.5 L 290.37 584 L 292.12 587.5 Z" fill="rgb(0, 0, 0)" stroke="rgb(0, 0, 0)" stroke-miterlimit="10" pointer-events="all"/></g><g style="filter: drop-shadow(rgba(0, 0, 0, 0.25) 2px 3px 2px);"><path d="M 274 150 L 356.63 150" fill="none" stroke="rgb(0, 0, 0)" stroke-miterlimit="10" pointer-events="stroke"/><path d="M 361.88 150 L 354.88 153.5 L 356.63 150 L 354.88 146.5 Z" fill="rgb(0, 0, 0)" stroke="rgb(0, 0, 0)" stroke-miterlimit="10" pointer-events="all"/></g><g style="filter: drop-shadow(rgba(0, 0, 0, 0.25) 2px 3px 2px);"><path d="M 169 262 L 169 302 L 356.63 302" fill="none" stroke="rgb(0, 0, 0)" stroke-miterlimit="10" pointer-events="stroke"/><path d="M 361.88 302 L 354.88 305.5 L 356.63 302 L 354.88 298.5 Z" fill="rgb(0, 0, 0)" stroke="rgb(0, 0, 0)" stroke-miterlimit="10" pointer-events="all"/></g><g style="filter: drop-shadow(rgba(0, 0, 0, 0.25) 2px 3px 2px);"><path d="M 473 170 L 473 240 L 279.37 240" fill="none" stroke="rgb(0, 0, 0)" stroke-miterlimit="10" pointer-events="stroke"/><path d="M 274.12 240 L 281.12 236.5 L 279.37 240 L 281.12 243.5 Z" fill="rgb(0, 0, 0)" stroke="rgb(0, 0, 0)" stroke-miterlimit="10" pointer-events="all"/></g></g></svg>