<svg xmlns="http://www.w3.org/2000/svg" xmlns:xlink="http://www.w3.org/1999/xlink" version="1.1" width="751px" height="732px" viewBox="-0.5 -0.5 751 732"><rect width="100%" height="100%" fill="gray" opacity=".5" /><defs/><g><g style="filter: drop-shadow(rgba(0, 0, 0, 0.25) 1.94px 2.91px 1.94px);"><path d="M 24.28 72.85 L 24.28 43.71 L 373.95 43.71 L 373.95 72.85" fill="#3cdacf" stroke="rgb(0, 0, 0)" stroke-width="0.97" stroke-miterlimit="10" pointer-events="all"/><path d="M 24.28 72.85 L 24.28 704.19 L 373.95 704.19 L 373.95 72.85" fill="none" stroke="rgb(0, 0, 0)" stroke-width="0.97" stroke-miterlimit="10" pointer-events="none"/><path d="M 24.28 72.85 L 373.95 72.85" fill="none" stroke="rgb(0, 0, 0)" stroke-width="0.97" stroke-miterlimit="10" pointer-events="none"/></g><g style="filter: drop-shadow(rgba(0, 0, 0, 0.25) 1.94px 2.91px 1.94px);"><g fill="rgb(0, 0, 0)" font-family="Helvetica" font-weight="bold" text-anchor="middle" font-size="14.5695px"><text x="198.62" y="64.09">Rubrik</text></g></g><g style="filter: drop-shadow(rgba(0, 0, 0, 0.25) 1.94px 2.91px 1.94px);"><path d="M 24.28 46.62 L 24.28 24.28 L 723.62 24.28 L 723.62 46.62" fill="rgb(255, 255, 255)" stroke="rgb(0, 0, 0)" stroke-width="0.97" stroke-miterlimit="10" pointer-events="all"/><path d="M 24.28 46.62 L 24.28 704.19 L 723.62 704.19 L 723.62 46.62" fill="none" stroke="rgb(0, 0, 0)" stroke-width="0.97" stroke-miterlimit="10" pointer-events="none"/><path d="M 24.28 46.62 L 723.62 46.62" fill="none" stroke="rgb(0, 0, 0)" stroke-width="0.97" stroke-miterlimit="10" pointer-events="none"/></g><g style="filter: drop-shadow(rgba(0, 0, 0, 0.25) 1.94px 2.91px 1.94px);"><g fill="rgb(0, 0, 0)" font-family="Helvetica" font-weight="bold" text-anchor="middle" font-size="16.5121px"><text x="373.45" y="42.24">Okta SSO workflow</text></g></g><g style="filter: drop-shadow(rgba(0, 0, 0, 0.25) 1.94px 2.91px 1.94px);"><path d="M 412.8 131.13 L 199.12 131.13 L 199.12 183.22" fill="none" stroke="rgb(0, 0, 0)" stroke-width="0.97" stroke-miterlimit="10" pointer-events="stroke"/><path d="M 199.12 188.32 L 195.72 181.52 L 199.12 183.22 L 202.52 181.52 Z" fill="rgb(0, 0, 0)" stroke="rgb(0, 0, 0)" stroke-width="0.97" stroke-miterlimit="10" pointer-events="all"/></g><g style="filter: drop-shadow(rgba(0, 0, 0, 0.25) 1.94px 2.91px 1.94px);"><rect x="412.8" y="111.7" width="271.96" height="38.85" fill="#2b94cc" stroke="rgb(0, 0, 0)" stroke-width="0.97" pointer-events="all"/></g><g style="filter: drop-shadow(rgba(0, 0, 0, 0.25) 1.94px 2.91px 1.94px);"><g fill="#F5F5F5" font-family="Helvetica" text-anchor="middle" font-size="11.6556px"><text x="548.28" y="135.48">Create app</text></g></g><g style="filter: drop-shadow(rgba(0, 0, 0, 0.25) 1.94px 2.91px 1.94px);"><rect x="412.8" y="189.4" width="271.96" height="38.85" fill="#2b94cc" stroke="rgb(0, 0, 0)" stroke-width="0.97" pointer-events="all"/></g><g style="filter: drop-shadow(rgba(0, 0, 0, 0.25) 1.94px 2.91px 1.94px);"><g fill="#F5F5F5" font-family="Helvetica" text-anchor="middle" font-size="11.6556px"><text x="548.28" y="213.19">Upload Rubrik info</text></g></g><g style="filter: drop-shadow(rgba(0, 0, 0, 0.25) 1.94px 2.91px 1.94px);"><path d="M 335.1 208.83 L 406.62 208.83" fill="none" stroke="rgb(0, 0, 0)" stroke-width="0.97" stroke-miterlimit="10" pointer-events="stroke"/><path d="M 411.72 208.83 L 404.92 212.23 L 406.62 208.83 L 404.92 205.43 Z" fill="rgb(0, 0, 0)" stroke="rgb(0, 0, 0)" stroke-width="0.97" stroke-miterlimit="10" pointer-events="all"/></g><g style="filter: drop-shadow(rgba(0, 0, 0, 0.25) 1.94px 2.91px 1.94px);"><rect x="63.13" y="189.4" width="271.96" height="38.85" fill="#3cdacf" stroke="rgb(0, 0, 0)" stroke-width="0.97" pointer-events="all"/></g><g style="filter: drop-shadow(rgba(0, 0, 0, 0.25) 1.94px 2.91px 1.94px);"><g fill="rgb(0, 0, 0)" font-family="Helvetica" text-anchor="middle" font-size="11.6556px"><text x="198.62" y="213.19">Copy Rubrik info</text></g></g><g style="filter: drop-shadow(rgba(0, 0, 0, 0.25) 1.94px 2.91px 1.94px);"><path d="M 412.8 440.97 L 341.28 440.97" fill="none" stroke="rgb(0, 0, 0)" stroke-width="0.97" stroke-miterlimit="10" pointer-events="stroke"/><path d="M 336.18 440.97 L 342.98 437.57 L 341.28 440.97 L 342.98 444.37 Z" fill="rgb(0, 0, 0)" stroke="rgb(0, 0, 0)" stroke-width="0.97" stroke-miterlimit="10" pointer-events="all"/></g><g style="filter: drop-shadow(rgba(0, 0, 0, 0.25) 1.94px 2.91px 1.94px);"><rect x="412.8" y="422.52" width="271.96" height="36.91" fill="#2b94cc" stroke="rgb(0, 0, 0)" stroke-width="0.97" pointer-events="all"/></g><g style="filter: drop-shadow(rgba(0, 0, 0, 0.25) 1.94px 2.91px 1.94px);"><g fill="#F5F5F5" font-family="Helvetica" text-anchor="middle" font-size="11.6556px"><text x="548.28" y="445.33">Copy Okta info</text></g></g><g style="filter: drop-shadow(rgba(0, 0, 0, 0.25) 1.94px 2.91px 1.94px);"><path d="M 199.12 460.4 L 199.12 493.06" fill="none" stroke="rgb(0, 0, 0)" stroke-width="0.97" stroke-miterlimit="10" pointer-events="stroke"/><path d="M 199.12 498.16 L 195.72 491.36 L 199.12 493.06 L 202.52 491.36 Z" fill="rgb(0, 0, 0)" stroke="rgb(0, 0, 0)" stroke-width="0.97" stroke-miterlimit="10" pointer-events="all"/></g><g style="filter: drop-shadow(rgba(0, 0, 0, 0.25) 1.94px 2.91px 1.94px);"><rect x="63.13" y="421.54" width="271.96" height="38.85" fill="#3cdacf" stroke="rgb(0, 0, 0)" stroke-width="0.97" pointer-events="all"/></g><g style="filter: drop-shadow(rgba(0, 0, 0, 0.25) 1.94px 2.91px 1.94px);"><g fill="rgb(0, 0, 0)" font-family="Helvetica" text-anchor="middle" font-size="11.6556px"><text x="198.62" y="445.33">Upload Okta info</text></g></g><g style="filter: drop-shadow(rgba(0, 0, 0, 0.25) 1.94px 2.91px 1.94px);"><path d="M 199.12 538.1 L 199.12 557.53 L 199.12 556.55 L 199.12 569.8" fill="none" stroke="rgb(0, 0, 0)" stroke-width="0.97" stroke-miterlimit="10" pointer-events="stroke"/><path d="M 199.12 574.89 L 195.72 568.1 L 199.12 569.8 L 202.52 568.1 Z" fill="rgb(0, 0, 0)" stroke="rgb(0, 0, 0)" stroke-width="0.97" stroke-miterlimit="10" pointer-events="all"/></g><g style="filter: drop-shadow(rgba(0, 0, 0, 0.25) 1.94px 2.91px 1.94px);"><rect x="63.13" y="499.25" width="271.96" height="38.85" fill="#3cdacf" stroke="rgb(0, 0, 0)" stroke-width="0.97" pointer-events="all"/></g><g style="filter: drop-shadow(rgba(0, 0, 0, 0.25) 1.94px 2.91px 1.94px);"><g fill="rgb(0, 0, 0)" font-family="Helvetica" text-anchor="middle" font-size="11.6556px"><text x="198.62" y="523.03">Test SSO</text></g></g><g style="filter: drop-shadow(rgba(0, 0, 0, 0.25) 1.94px 2.91px 1.94px);"><path d="M 199.12 614.83 L 199.12 649.44" fill="none" stroke="rgb(0, 0, 0)" stroke-width="0.97" stroke-miterlimit="10" pointer-events="stroke"/><path d="M 199.12 654.54 L 195.72 647.74 L 199.12 649.44 L 202.52 647.74 Z" fill="rgb(0, 0, 0)" stroke="rgb(0, 0, 0)" stroke-width="0.97" stroke-miterlimit="10" pointer-events="all"/></g><g style="filter: drop-shadow(rgba(0, 0, 0, 0.25) 1.94px 2.91px 1.94px);"><rect x="63.13" y="575.98" width="271.96" height="38.85" fill="#3cdacf" stroke="rgb(0, 0, 0)" stroke-width="0.97" pointer-events="all"/></g><g style="filter: drop-shadow(rgba(0, 0, 0, 0.25) 1.94px 2.91px 1.94px);"><g fill="rgb(0, 0, 0)" font-family="Helvetica" text-anchor="middle" font-size="11.6556px"><text x="198.62" y="599.76">Create roles</text></g></g><g style="filter: drop-shadow(rgba(0, 0, 0, 0.25) 1.94px 2.91px 1.94px);"><rect x="63.13" y="655.63" width="271.96" height="38.85" fill="#3cdacf" stroke="rgb(0, 0, 0)" stroke-width="0.97" pointer-events="all"/></g><g style="filter: drop-shadow(rgba(0, 0, 0, 0.25) 1.94px 2.91px 1.94px);"><g fill="rgb(0, 0, 0)" font-family="Helvetica" text-anchor="middle" font-size="11.6556px"><text x="198.62" y="679.41">Authorize Okta groups</text></g></g><g style="filter: drop-shadow(rgba(0, 0, 0, 0.25) 1.94px 2.91px 1.94px);"><path d="M 70.42 398.72 L 74.06 395.08 Q 77.7 391.43 84.99 398.72 L 88.63 402.36 Q 92.27 406 84.99 413.29 L 81.35 416.93 Q 77.7 420.57 70.42 413.29 L 66.78 409.65 Q 63.13 406 66.78 402.36 Z" fill="#125061" stroke="none" pointer-events="all"/></g><g style="filter: drop-shadow(rgba(0, 0, 0, 0.25) 1.94px 2.91px 1.94px);"><g fill="#F5F5F5" font-family="Helvetica" text-anchor="middle" font-size="11.6556px"><text x="77.2" y="410.36">7</text></g></g><g style="filter: drop-shadow(rgba(0, 0, 0, 0.25) 1.94px 2.91px 1.94px);"><path d="M 70.42 476.42 L 74.06 472.78 Q 77.7 469.14 84.57 476.01 L 88.42 479.86 Q 92.27 483.71 85.41 490.58 L 81.55 494.43 Q 77.7 498.28 70.84 491.41 L 66.99 487.56 Q 63.13 483.71 66.78 480.07 Z" fill="#125061" stroke="none" pointer-events="all"/></g><g style="filter: drop-shadow(rgba(0, 0, 0, 0.25) 1.94px 2.91px 1.94px);"><g fill="#F5F5F5" font-family="Helvetica" text-anchor="middle" font-size="11.6556px"><text x="77.2" y="488.06">8</text></g></g><g style="filter: drop-shadow(rgba(0, 0, 0, 0.25) 1.94px 2.91px 1.94px);"><path d="M 70.42 554.13 L 74.06 550.48 Q 77.7 546.84 84.99 554.13 L 88.63 557.77 Q 92.27 561.41 84.99 568.7 L 81.35 572.34 Q 77.7 575.98 70.42 568.7 L 66.78 565.05 Q 63.13 561.41 66.78 557.77 Z" fill="#125061" stroke="none" pointer-events="all"/></g><g style="filter: drop-shadow(rgba(0, 0, 0, 0.25) 1.94px 2.91px 1.94px);"><g fill="#F5F5F5" font-family="Helvetica" text-anchor="middle" font-size="11.6556px"><text x="77.2" y="565.77">9</text></g></g><g style="filter: drop-shadow(rgba(0, 0, 0, 0.25) 1.94px 2.91px 1.94px);"><path d="M 70.42 167.55 L 74.06 163.91 Q 77.7 160.26 84.57 167.13 L 88.42 170.98 Q 92.27 174.83 85.41 181.7 L 81.55 185.55 Q 77.7 189.4 70.84 182.54 L 66.99 178.68 Q 63.13 174.83 66.78 171.19 Z" fill="#125061" stroke="none" pointer-events="all"/></g><g style="filter: drop-shadow(rgba(0, 0, 0, 0.25) 1.94px 2.91px 1.94px);"><g fill="#F5F5F5" font-family="Helvetica" text-anchor="middle" font-size="11.6556px"><text x="77.2" y="179.19">2</text></g></g><g style="filter: drop-shadow(rgba(0, 0, 0, 0.25) 1.94px 2.91px 1.94px);"><path d="M 70.42 633.77 L 74.06 630.13 Q 77.7 626.49 84.99 633.77 L 88.63 637.42 Q 92.27 641.06 84.99 648.34 L 81.35 651.99 Q 77.7 655.63 70.42 648.34 L 66.78 644.7 Q 63.13 641.06 66.78 637.42 Z" fill="#125061" stroke="none" pointer-events="all"/></g><g style="filter: drop-shadow(rgba(0, 0, 0, 0.25) 1.94px 2.91px 1.94px);"><g fill="#F5F5F5" font-family="Helvetica" text-anchor="middle" font-size="11.6556px"><text x="77.2" y="645.41">10</text></g></g><g style="filter: drop-shadow(rgba(0, 0, 0, 0.25) 1.94px 2.91px 1.94px);"><path d="M 373.95 72.85 L 373.95 46.62 L 723.62 46.62 L 723.62 72.85" fill="#2b94cc" stroke="rgb(0, 0, 0)" stroke-width="0.97" stroke-miterlimit="10" pointer-events="all"/><path d="M 373.95 72.85 L 373.95 704.19 L 723.62 704.19 L 723.62 72.85" fill="none" stroke="rgb(0, 0, 0)" stroke-width="0.97" stroke-miterlimit="10" pointer-events="none"/><path d="M 373.95 72.85 L 723.62 72.85" fill="none" stroke="rgb(0, 0, 0)" stroke-width="0.97" stroke-miterlimit="10" pointer-events="none"/></g><g style="filter: drop-shadow(rgba(0, 0, 0, 0.25) 1.94px 2.91px 1.94px);"><g fill="#F5F5F5" font-family="Helvetica" font-weight="bold" text-anchor="middle" font-size="14.5695px"><text x="548.28" y="65.55">Okta</text></g></g><g style="filter: drop-shadow(rgba(0, 0, 0, 0.25) 1.94px 2.91px 1.94px);"><path d="M 420.09 90.82 L 423.73 87.17 Q 427.37 83.53 434.66 90.82 L 438.3 94.46 Q 441.94 98.1 434.66 105.39 L 431.01 109.03 Q 427.37 112.67 420.09 105.39 L 416.44 101.74 Q 412.8 98.1 416.44 94.46 Z" fill="#125061" stroke="none" pointer-events="all"/></g><g style="filter: drop-shadow(rgba(0, 0, 0, 0.25) 1.94px 2.91px 1.94px);"><g fill="#F5F5F5" font-family="Helvetica" text-anchor="middle" font-size="11.6556px"><text x="426.87" y="102.46">1</text></g></g><g style="filter: drop-shadow(rgba(0, 0, 0, 0.25) 1.94px 2.91px 1.94px);"><path d="M 420.09 246.22 L 423.73 242.58 Q 427.37 238.94 434.24 245.81 L 438.09 249.66 Q 441.94 253.51 435.07 260.38 L 431.22 264.23 Q 427.37 268.08 420.5 261.21 L 416.65 257.36 Q 412.8 253.51 416.44 249.87 Z" fill="#125061" stroke="none" pointer-events="all"/></g><g style="filter: drop-shadow(rgba(0, 0, 0, 0.25) 1.94px 2.91px 1.94px);"><g fill="#F5F5F5" font-family="Helvetica" text-anchor="middle" font-size="11.6556px"><text x="426.87" y="257.87">4</text></g></g><g style="filter: drop-shadow(rgba(0, 0, 0, 0.25) 1.94px 2.91px 1.94px);"><path d="M 548.78 303.05 L 548.78 338.63" fill="none" stroke="rgb(0, 0, 0)" stroke-width="0.97" stroke-miterlimit="10" pointer-events="stroke"/><path d="M 548.78 343.73 L 545.38 336.93 L 548.78 338.63 L 552.18 336.93 Z" fill="rgb(0, 0, 0)" stroke="rgb(0, 0, 0)" stroke-width="0.97" stroke-miterlimit="10" pointer-events="all"/></g><g style="filter: drop-shadow(rgba(0, 0, 0, 0.25) 1.94px 2.91px 1.94px);"><rect x="412.8" y="268.08" width="271.96" height="34.97" fill="#2b94cc" stroke="rgb(0, 0, 0)" stroke-width="0.97" pointer-events="all"/></g><g style="filter: drop-shadow(rgba(0, 0, 0, 0.25) 1.94px 2.91px 1.94px);"><g fill="#F5F5F5" font-family="Helvetica" text-anchor="middle" font-size="11.6556px"><text x="548.28" y="289.92">Configure Okta</text></g></g><g style="filter: drop-shadow(rgba(0, 0, 0, 0.25) 1.94px 2.91px 1.94px);"><path d="M 420.09 168.52 L 423.73 164.88 Q 427.37 161.24 434.24 168.1 L 438.09 171.95 Q 441.94 175.81 435.07 182.67 L 431.22 186.52 Q 427.37 190.37 420.5 183.51 L 416.65 179.66 Q 412.8 175.81 416.44 172.16 Z" fill="#125061" stroke="none" pointer-events="all"/></g><g style="filter: drop-shadow(rgba(0, 0, 0, 0.25) 1.94px 2.91px 1.94px);"><g fill="#F5F5F5" font-family="Helvetica" text-anchor="middle" font-size="11.6556px"><text x="426.87" y="180.16">3</text></g></g><g style="filter: drop-shadow(rgba(0, 0, 0, 0.25) 1.94px 2.91px 1.94px);"><path d="M 420.09 399.69 L 423.73 396.05 Q 427.37 392.41 434.24 399.27 L 438.09 403.12 Q 441.94 406.97 435.07 413.84 L 431.22 417.69 Q 427.37 421.54 420.5 414.68 L 416.65 410.83 Q 412.8 406.97 416.44 403.33 Z" fill="#125061" stroke="none" pointer-events="all"/></g><g style="filter: drop-shadow(rgba(0, 0, 0, 0.25) 1.94px 2.91px 1.94px);"><g fill="#F5F5F5" font-family="Helvetica" text-anchor="middle" font-size="11.6556px"><text x="426.87" y="411.33">6</text></g></g><g style="filter: drop-shadow(rgba(0, 0, 0, 0.25) 1.94px 2.91px 1.94px);"><rect x="412.8" y="344.81" width="271.96" height="38.85" fill="#2b94cc" stroke="rgb(0, 0, 0)" stroke-width="0.97" pointer-events="all"/></g><g style="filter: drop-shadow(rgba(0, 0, 0, 0.25) 1.94px 2.91px 1.94px);"><g fill="#F5F5F5" font-family="Helvetica" text-anchor="middle" font-size="11.6556px"><text x="548.28" y="368.59">Assign users and groups</text></g></g><g style="filter: drop-shadow(rgba(0, 0, 0, 0.25) 1.94px 2.91px 1.94px);"><path d="M 420.09 322.96 L 423.73 319.31 Q 427.37 315.67 434.24 322.54 L 438.09 326.39 Q 441.94 330.24 435.07 337.11 L 431.22 340.96 Q 427.37 344.81 420.5 337.94 L 416.65 334.09 Q 412.8 330.24 416.44 326.6 Z" fill="#125061" stroke="none" pointer-events="all"/></g><g style="filter: drop-shadow(rgba(0, 0, 0, 0.25) 1.94px 2.91px 1.94px);"><g fill="#F5F5F5" font-family="Helvetica" text-anchor="middle" font-size="11.6556px"><text x="426.87" y="334.6">5</text></g></g><g style="filter: drop-shadow(rgba(0, 0, 0, 0.25) 1.94px 2.91px 1.94px);"><path d="M 548.78 228.26 L 548.78 261.89" fill="none" stroke="rgb(0, 0, 0)" stroke-width="0.97" stroke-miterlimit="10" pointer-events="stroke"/><path d="M 548.78 266.99 L 545.38 260.19 L 548.78 261.89 L 552.18 260.19 Z" fill="rgb(0, 0, 0)" stroke="rgb(0, 0, 0)" stroke-width="0.97" stroke-miterlimit="10" pointer-events="all"/></g><g style="filter: drop-shadow(rgba(0, 0, 0, 0.25) 1.94px 2.91px 1.94px);"><path d="M 548.78 383.66 L 548.78 416.33" fill="none" stroke="rgb(0, 0, 0)" stroke-width="0.97" stroke-miterlimit="10" pointer-events="stroke"/><path d="M 548.78 421.43 L 545.38 414.63 L 548.78 416.33 L 552.18 414.63 Z" fill="rgb(0, 0, 0)" stroke="rgb(0, 0, 0)" stroke-width="0.97" stroke-miterlimit="10" pointer-events="all"/></g></g></svg>