<svg xmlns="http://www.w3.org/2000/svg" xmlns:xlink="http://www.w3.org/1999/xlink" version="1.1" width="740px" height="593px" viewBox="-0.5 -0.5 740 593"><defs/><g><g style="filter: drop-shadow(rgba(0, 0, 0, 0.25) 1.78px 2.68px 1.78px);"><rect x="23.18" y="85.6" width="190.82" height="53.5" rx="8.03" ry="8.03" fill="#f1b335" stroke="#f1b335" stroke-width="0.89" pointer-events="all"/></g><g style="filter: drop-shadow(rgba(0, 0, 0, 0.25) 1.78px 2.68px 1.78px);"><g fill="rgb(0, 0, 0)" font-family="Helvetica" text-anchor="middle" font-size="10.7004px"><text x="118.1" y="110.07">SSO service provider</text><text x="118.1" y="122.55">(RSC)</text></g></g><g style="filter: drop-shadow(rgba(0, 0, 0, 0.25) 1.78px 2.68px 1.78px);"><rect x="272.86" y="85.6" width="196.17" height="53.5" rx="8.03" ry="8.03" fill="#31bf91" stroke="#31bf91" stroke-width="0.89" pointer-events="all"/></g><g style="filter: drop-shadow(rgba(0, 0, 0, 0.25) 1.78px 2.68px 1.78px);"><g fill="rgb(0, 0, 0)" font-family="Helvetica" text-anchor="middle" font-size="10.7004px"><text x="370.45" y="116.31">Browser</text></g></g><g style="filter: drop-shadow(rgba(0, 0, 0, 0.25) 1.78px 2.68px 1.78px);"><rect x="522.54" y="85.6" width="190.82" height="53.5" rx="8.03" ry="8.03" fill="#125061" stroke="#125061" stroke-width="0.89" pointer-events="all"/></g><g style="filter: drop-shadow(rgba(0, 0, 0, 0.25) 1.78px 2.68px 1.78px);"><g fill="#F5F5F5" font-family="Helvetica" text-anchor="middle" font-size="10.7004px"><text x="617.45" y="116.31">Identity Provider</text></g></g><g style="filter: drop-shadow(rgba(0, 0, 0, 0.25) 1.78px 2.68px 1.78px);"><path d="M 362.07 552.53 L 364.78 139.11" fill="none" stroke="#31bf91" stroke-width="0.89" stroke-miterlimit="10" pointer-events="stroke"/><path d="M 362.04 557.21 L 358.96 550.95 L 362.07 552.53 L 365.2 550.99 Z" fill="#31bf91" stroke="#31bf91" stroke-width="0.89" stroke-miterlimit="10" pointer-events="all"/></g><g style="filter: drop-shadow(rgba(0, 0, 0, 0.25) 1.78px 2.68px 1.78px);"><path d="M 112.37 552.53 L 113.32 139.11" fill="none" stroke="#f1b335" stroke-width="0.89" stroke-miterlimit="10" pointer-events="stroke"/><path d="M 112.36 557.21 L 109.25 550.96 L 112.37 552.53 L 115.49 550.97 Z" fill="#f1b335" stroke="#f1b335" stroke-width="0.89" stroke-miterlimit="10" pointer-events="all"/></g><g style="filter: drop-shadow(rgba(0, 0, 0, 0.25) 1.78px 2.68px 1.78px);"><path d="M 602.8 552.53 L 603.75 139.11" fill="none" stroke="#125061" stroke-width="0.89" stroke-miterlimit="10" pointer-events="stroke"/><path d="M 602.79 557.21 L 599.68 550.96 L 602.8 552.53 L 605.93 550.97 Z" fill="#125061" stroke="#125061" stroke-width="0.89" stroke-miterlimit="10" pointer-events="all"/></g><g style="filter: drop-shadow(rgba(0, 0, 0, 0.25) 1.78px 2.68px 1.78px);"><path d="M 112.35 266.62 L 597.11 266.62" fill="none" stroke="#f1b335" stroke-width="0.89" stroke-miterlimit="10" pointer-events="stroke"/><path d="M 601.79 266.62 L 595.55 269.74 L 597.11 266.62 L 595.55 263.5 Z" fill="#f1b335" stroke="#f1b335" stroke-width="0.89" stroke-miterlimit="10" pointer-events="all"/></g><g style="filter: drop-shadow(rgba(0, 0, 0, 0.25) 1.78px 2.68px 1.78px);"><path d="M 362.92 201.52 L 238.08 201.52 L 118.92 201.52" fill="none" stroke="#31bf91" stroke-width="0.89" stroke-miterlimit="10" pointer-events="stroke"/><path d="M 114.24 201.52 L 120.48 198.4 L 118.92 201.52 L 120.48 204.65 Z" fill="#31bf91" stroke="#31bf91" stroke-width="0.89" stroke-miterlimit="10" pointer-events="all"/></g><g style="filter: drop-shadow(rgba(0, 0, 0, 0.25) 1.78px 2.68px 1.78px);"><path d="M 604.57 321.9 L 479.73 321.9 L 367.71 321.9" fill="none" stroke="#125061" stroke-width="0.89" stroke-miterlimit="10" pointer-events="stroke"/><path d="M 363.03 321.9 L 369.27 318.78 L 367.71 321.9 L 369.27 325.02 Z" fill="#125061" stroke="#125061" stroke-width="0.89" stroke-miterlimit="10" pointer-events="all"/></g><g style="filter: drop-shadow(rgba(0, 0, 0, 0.25) 1.78px 2.68px 1.78px);"><path d="M 362.03 372.73 L 602.79 372.73" fill="none" stroke="#31bf91" stroke-width="1.78" stroke-miterlimit="10" stroke-dasharray="1.78 5.35" pointer-events="stroke"/></g><g style="filter: drop-shadow(rgba(0, 0, 0, 0.25) 1.78px 2.68px 1.78px);"><path d="M 596.55 372.73 L 599.79 372.73" fill="none" stroke="#31bf91" stroke-width="0.89" stroke-miterlimit="10" pointer-events="stroke"/><path d="M 604.47 372.73 L 598.23 375.85 L 599.79 372.73 L 598.23 369.61 Z" fill="#31bf91" stroke="#31bf91" stroke-width="0.89" stroke-miterlimit="10" pointer-events="all"/></g><g style="filter: drop-shadow(rgba(0, 0, 0, 0.25) 1.78px 2.68px 1.78px);"><path d="M 602.79 429.8 L 263.94 429.8 L 118.03 429.8" fill="none" stroke="#125061" stroke-width="0.89" stroke-miterlimit="10" pointer-events="stroke"/><path d="M 113.35 429.8 L 119.59 426.68 L 118.03 429.8 L 119.59 432.92 Z" fill="#125061" stroke="#125061" stroke-width="0.89" stroke-miterlimit="10" pointer-events="all"/></g><g style="filter: drop-shadow(rgba(0, 0, 0, 0.25) 1.78px 2.68px 1.78px);"><path d="M 112.35 486.87 L 356.35 486.87" fill="none" stroke="#f1b335" stroke-width="0.89" stroke-miterlimit="10" pointer-events="stroke"/><path d="M 361.03 486.87 L 354.79 489.99 L 356.35 486.87 L 354.79 483.75 Z" fill="#f1b335" stroke="#f1b335" stroke-width="0.89" stroke-miterlimit="10" pointer-events="all"/></g><g style="filter: drop-shadow(rgba(0, 0, 0, 0.25) 1.78px 2.68px 1.78px);"><path d="M 131.53 174.77 L 135.76 170.31 Q 140 165.86 146.14 172.32 L 151.54 178.01 Q 156.94 183.69 150.8 190.16 L 145.4 195.84 Q 140 201.52 133.86 195.06 L 128.45 189.37 Q 123.05 183.69 127.29 179.23 Z" fill="#2b94cc" stroke="none" pointer-events="all"/></g><g style="filter: drop-shadow(rgba(0, 0, 0, 0.25) 1.78px 2.68px 1.78px);"><g fill="rgb(0, 0, 0)" font-family="Helvetica" text-anchor="middle" font-size="10.7004px"><text x="139.5" y="187.65">1</text></g></g><g style="filter: drop-shadow(rgba(0, 0, 0, 0.25) 1.78px 2.68px 1.78px);"><path d="M 570.24 237.19 L 574.48 232.73 Q 578.71 228.28 584.85 234.74 L 590.26 240.42 Q 595.66 246.11 589.51 252.57 L 584.11 258.26 Q 578.71 263.94 572.57 257.48 L 567.17 251.79 Q 561.77 246.11 566.01 241.65 Z" fill="#2b94cc" stroke="none" pointer-events="all"/></g><g style="filter: drop-shadow(rgba(0, 0, 0, 0.25) 1.78px 2.68px 1.78px);"><g fill="rgb(0, 0, 0)" font-family="Helvetica" text-anchor="middle" font-size="10.7004px"><text x="578.21" y="250.07">2</text></g></g><g style="filter: drop-shadow(rgba(0, 0, 0, 0.25) 1.78px 2.68px 1.78px);"><path d="M 380.31 293.37 L 384.55 288.91 Q 388.78 284.45 397.25 293.37 L 401.49 297.83 Q 405.72 302.29 397.25 311.2 L 393.02 315.66 Q 388.78 320.12 380.31 311.2 L 376.07 306.74 Q 371.84 302.29 376.07 297.83 Z" fill="#2b94cc" stroke="none" pointer-events="all"/></g><g style="filter: drop-shadow(rgba(0, 0, 0, 0.25) 1.78px 2.68px 1.78px);"><g fill="rgb(0, 0, 0)" font-family="Helvetica" text-anchor="middle" font-size="10.7004px"><text x="388.28" y="306.24">3</text></g></g><g style="filter: drop-shadow(rgba(0, 0, 0, 0.25) 1.78px 2.68px 1.78px);"><path d="M 570.24 344.2 L 574.48 339.74 Q 578.71 335.28 587.18 344.2 L 591.42 348.65 Q 595.66 353.11 587.18 362.03 L 582.95 366.49 Q 578.71 370.95 570.24 362.03 L 566.01 357.57 Q 561.77 353.11 566.01 348.65 Z" fill="#2b94cc" stroke="none" pointer-events="all"/></g><g style="filter: drop-shadow(rgba(0, 0, 0, 0.25) 1.78px 2.68px 1.78px);"><g fill="rgb(0, 0, 0)" font-family="Helvetica" text-anchor="middle" font-size="10.7004px"><text x="578.21" y="357.07">4</text></g></g><g style="filter: drop-shadow(rgba(0, 0, 0, 0.25) 1.78px 2.68px 1.78px);"><path d="M 131.53 403.05 L 135.76 398.59 Q 140 394.13 148.47 403.05 L 152.7 407.51 Q 156.94 411.97 148.47 420.88 L 144.23 425.34 Q 140 429.8 131.53 420.88 L 127.29 416.42 Q 123.05 411.97 127.29 407.51 Z" fill="#2b94cc" stroke="none" pointer-events="all"/></g><g style="filter: drop-shadow(rgba(0, 0, 0, 0.25) 1.78px 2.68px 1.78px);"><g fill="rgb(0, 0, 0)" font-family="Helvetica" text-anchor="middle" font-size="10.7004px"><text x="139.5" y="415.92">5</text></g></g><g style="filter: drop-shadow(rgba(0, 0, 0, 0.25) 1.78px 2.68px 1.78px);"><path d="M 329.48 460.12 L 333.72 455.66 Q 337.95 451.2 346.43 460.12 L 350.66 464.58 Q 354.9 469.03 346.43 477.95 L 342.19 482.41 Q 337.95 486.87 329.48 477.95 L 325.25 473.49 Q 321.01 469.03 325.25 464.58 Z" fill="#2b94cc" stroke="none" pointer-events="all"/></g><g style="filter: drop-shadow(rgba(0, 0, 0, 0.25) 1.78px 2.68px 1.78px);"><g fill="rgb(0, 0, 0)" font-family="Helvetica" text-anchor="middle" font-size="10.7004px"><text x="337.45" y="472.99">6</text></g></g><g style="filter: drop-shadow(rgba(0, 0, 0, 0.25) 1.78px 2.68px 1.78px);"><rect x="196.17" y="23.18" width="347.76" height="26.75" fill="none" stroke="none" pointer-events="all"/></g><g style="filter: drop-shadow(rgba(0, 0, 0, 0.25) 1.78px 2.68px 1.78px);"><g fill="rgb(0, 0, 0)" font-family="Helvetica" font-weight="bold" text-anchor="middle" font-size="17.834px"><text x="369.56" y="44.09">RSC SSO Workflow</text></g></g></g></svg>