<svg xmlns="http://www.w3.org/2000/svg" xmlns:xlink="http://www.w3.org/1999/xlink" version="1.1" width="758px" height="582px" viewBox="-0.5 -0.5 758 582"><rect width="100%" height="100%" fill="gray" opacity=".5" /><defs/><g><rect x="87" y="99" width="140" height="76" rx="1" ry="1" fill="#000000" stroke="#000000" pointer-events="all" transform="translate(2,3)" opacity="0.25"/><rect x="87" y="99" width="140" height="76" rx="1" ry="1" fill="rgb(255, 255, 255)" stroke="#dddddd" pointer-events="all"/><path d="M 108.04 153 C 99.36 153 92 146.23 92 136.89 C 92 127.84 99.54 121 108.01 121 C 116.8 121 124 128.67 124 136.92 C 124 145.63 116.91 153 108.04 153 Z" fill="#757575" stroke="none" pointer-events="all"/><path d="M 104.77 127.9 C 103.89 127.9 103.06 128.24 102.53 128.85 C 102 129.44 101.78 130.22 101.78 130.97 L 101.78 133.03 L 98.86 133.03 L 98.86 136.09 L 101.55 146.1 L 114.41 146.1 L 117.14 136.09 L 117.14 133.03 L 114.2 133.03 L 114.2 130.97 C 114.2 130.19 114 129.39 113.46 128.79 C 112.91 128.18 112.07 127.9 111.23 127.9 Z M 104.77 130.16 L 111.23 130.16 C 111.63 130.16 111.72 130.25 111.78 130.31 C 111.84 130.38 111.93 130.56 111.93 130.97 L 111.93 133.03 L 104.05 133.03 L 104.05 130.97 C 104.05 130.64 104.14 130.44 104.23 130.35 C 104.32 130.25 104.41 130.16 104.77 130.16 Z" fill="#ffffff" stroke="none" pointer-events="all"/><g fill="rgb(0, 0, 0)" font-family="Helvetica" font-size="12px"><text x="130.5" y="134.5">Source S3</text><text x="130.5" y="148.5">Bucket</text></g><path d="M 127 175 L 126.93 268.51" fill="none" stroke="rgb(0, 0, 0)" stroke-miterlimit="10" pointer-events="stroke"/><path d="M 126.92 273.76 L 123.43 266.76 L 126.93 268.51 L 130.43 266.76 Z" fill="rgb(0, 0, 0)" stroke="rgb(0, 0, 0)" stroke-miterlimit="10" pointer-events="all"/><rect x="447" y="115" width="140" height="60" rx="1" ry="1" fill="#000000" stroke="#000000" pointer-events="all" transform="translate(2,3)" opacity="0.25"/><rect x="447" y="115" width="140" height="60" rx="1" ry="1" fill="rgb(255, 255, 255)" stroke="#dddddd" pointer-events="all"/><path d="M 468.04 161 C 459.36 161 452 154.23 452 144.89 C 452 135.84 459.54 129 468.01 129 C 476.8 129 484 136.67 484 144.92 C 484 153.63 476.91 161 468.04 161 Z" fill="#757575" stroke="none" pointer-events="all"/><path d="M 464.77 135.9 C 463.89 135.9 463.06 136.24 462.53 136.85 C 462 137.44 461.78 138.22 461.78 138.97 L 461.78 141.03 L 458.86 141.03 L 458.86 144.09 L 461.55 154.1 L 474.41 154.1 L 477.14 144.09 L 477.14 141.03 L 474.2 141.03 L 474.2 138.97 C 474.2 138.19 474 137.39 473.46 136.79 C 472.91 136.18 472.07 135.9 471.23 135.9 Z M 464.77 138.16 L 471.23 138.16 C 471.63 138.16 471.72 138.25 471.78 138.31 C 471.84 138.38 471.93 138.56 471.93 138.97 L 471.93 141.03 L 464.05 141.03 L 464.05 138.97 C 464.05 138.64 464.14 138.44 464.23 138.35 C 464.32 138.25 464.41 138.16 464.77 138.16 Z" fill="#ffffff" stroke="none" pointer-events="all"/><g fill="rgb(0, 0, 0)" font-family="Helvetica" font-size="12px"><text x="490.5" y="149.5">Archival location</text></g><rect x="77" y="275" width="160" height="60" rx="9" ry="9" fill="rgb(255, 255, 255)" stroke="rgb(0, 0, 0)" pointer-events="all"/><g fill="rgb(0, 0, 0)" font-family="Helvetica" text-anchor="middle" font-size="12px"><text x="156.5" y="302.5">Rubrik Exocompute or</text><text x="156.5" y="316.5">EKS cluster</text></g><path d="M 117 471 C 117 462.72 130.43 456 147 456 C 154.96 456 162.59 457.58 168.21 460.39 C 173.84 463.21 177 467.02 177 471 L 177 521 C 177 529.28 163.57 536 147 536 C 130.43 536 117 529.28 117 521 Z" fill="rgb(255, 255, 255)" stroke="rgb(0, 0, 0)" stroke-miterlimit="10" pointer-events="all"/><path d="M 177 471 C 177 479.28 163.57 486 147 486 C 130.43 486 117 479.28 117 471" fill="none" stroke="rgb(0, 0, 0)" stroke-miterlimit="10" pointer-events="all"/><g fill="rgb(0, 0, 0)" font-family="Helvetica" text-anchor="middle" font-size="12px"><text x="146.5" y="506">Object </text><text x="146.5" y="520">index</text></g><rect x="477" y="466" width="120" height="60" fill="rgb(255, 255, 255)" stroke="rgb(0, 0, 0)" pointer-events="all"/><path d="M 489 466 L 489 526 M 585 466 L 585 526" fill="none" stroke="rgb(0, 0, 0)" stroke-miterlimit="10" pointer-events="all"/><g fill="rgb(0, 0, 0)" font-family="Helvetica" text-anchor="middle" font-size="12px"><text x="536.5" y="493.5">Object-level</text><text x="536.5" y="507.5">search</text></g><path d="M 237 295 L 547 295" fill="none" stroke="rgb(0, 0, 0)" stroke-miterlimit="10" pointer-events="stroke"/><path d="M 547 295 L 546.17 186.65" fill="none" stroke="rgb(0, 0, 0)" stroke-miterlimit="10" pointer-events="stroke"/><path d="M 546.13 181.4 L 549.68 188.37 L 546.17 186.65 L 542.68 188.42 Z" fill="rgb(0, 0, 0)" stroke="rgb(0, 0, 0)" stroke-miterlimit="10" pointer-events="all"/><path d="M 507 225 L 507 175" fill="none" stroke="rgb(0, 0, 0)" stroke-miterlimit="10" pointer-events="stroke"/><path d="M 187 225 L 507 225" fill="none" stroke="rgb(0, 0, 0)" stroke-miterlimit="10" pointer-events="stroke"/><path d="M 187 225 L 187.21 185.7" fill="none" stroke="rgb(0, 0, 0)" stroke-miterlimit="10" pointer-events="stroke"/><path d="M 187.23 180.45 L 190.7 187.47 L 187.21 185.7 L 183.7 187.43 Z" fill="rgb(0, 0, 0)" stroke="rgb(0, 0, 0)" stroke-miterlimit="10" pointer-events="all"/><path d="M 147 445 L 147 335" fill="none" stroke="rgb(0, 0, 0)" stroke-miterlimit="10" stroke-dasharray="3 3" pointer-events="stroke"/><path d="M 147 445 L 147 448.63" fill="none" stroke="rgb(0, 0, 0)" stroke-miterlimit="10" pointer-events="stroke"/><path d="M 147 453.88 L 143.5 446.88 L 147 448.63 L 150.5 446.88 Z" fill="rgb(0, 0, 0)" stroke="rgb(0, 0, 0)" stroke-miterlimit="10" pointer-events="all"/><path d="M 177 495 L 471.96 494.14" fill="none" stroke="rgb(0, 0, 0)" stroke-miterlimit="10" stroke-dasharray="3 3" pointer-events="stroke"/><path d="M 467 494 L 470.63 494" fill="none" stroke="rgb(0, 0, 0)" stroke-miterlimit="10" pointer-events="stroke"/><path d="M 475.88 494 L 468.88 497.5 L 470.63 494 L 468.88 490.5 Z" fill="rgb(0, 0, 0)" stroke="rgb(0, 0, 0)" stroke-miterlimit="10" pointer-events="all"/><path d="M 536 465 L 536 315" fill="none" stroke="rgb(0, 0, 0)" stroke-miterlimit="10" stroke-dasharray="3 3" pointer-events="stroke"/><path d="M 247 315 L 537 315" fill="none" stroke="rgb(0, 0, 0)" stroke-miterlimit="10" stroke-dasharray="3 3" pointer-events="stroke"/><path d="M 246 315 L 243.63 314.81" fill="none" stroke="rgb(0, 0, 0)" stroke-miterlimit="10" pointer-events="stroke"/><path d="M 238.39 314.39 L 245.65 311.46 L 243.63 314.81 L 245.09 318.44 Z" fill="rgb(0, 0, 0)" stroke="rgb(0, 0, 0)" stroke-miterlimit="10" pointer-events="all"/><path d="M 11 11 L 11 11 L 747 11 L 747 11" fill="rgb(255, 255, 255)" stroke="rgb(0, 0, 0)" stroke-width="2" stroke-miterlimit="10" pointer-events="all"/><path d="M 11 11 L 11 379 L 747 379 L 747 11" fill="none" stroke="rgb(0, 0, 0)" stroke-width="2" stroke-miterlimit="10" pointer-events="none"/><rect x="619" y="331" width="120" height="32" fill="none" stroke="none" pointer-events="all"/><g fill="rgb(0, 0, 0)" font-family="Helvetica" text-anchor="middle" font-size="12px"><text x="678.5" y="351.5">Your AWS account</text></g><rect x="235" y="123" width="104" height="48" fill="none" stroke="none" pointer-events="all"/><g fill="rgb(0, 0, 0)" font-family="Helvetica" text-anchor="middle" font-size="12px"><text x="286.5" y="144.5">S3 Standard</text><text x="286.5" y="158.5">S3 Standard-IA</text></g><rect x="591" y="118" width="104" height="64" fill="none" stroke="none" pointer-events="all"/><g fill="rgb(0, 0, 0)" font-family="Helvetica" text-anchor="middle" font-size="12px"><text x="642.5" y="140.5">S3 Standard</text><text x="642.5" y="154.5">S3 Standard-IA</text><text x="642.5" y="168.5">S3 Glacier</text></g><path d="M 11 427 L 11 427 L 747 427 L 747 427" fill="rgb(255, 255, 255)" stroke="rgb(0, 0, 0)" stroke-width="2" stroke-miterlimit="10" pointer-events="all"/><path d="M 11 427 L 11 571 L 747 571 L 747 427" fill="none" stroke="rgb(0, 0, 0)" stroke-width="2" stroke-miterlimit="10" pointer-events="none"/><rect x="599" y="526" width="128" height="32" fill="none" stroke="none" pointer-events="all"/><g fill="rgb(0, 0, 0)" font-family="Helvetica" text-anchor="middle" font-size="12px"><text x="662.5" y="546.5">Your Rubrik account</text></g><rect x="255" y="32" width="176" height="32" fill="none" stroke="none" pointer-events="all"/><g fill="rgb(0, 0, 0)" font-family="Helvetica" text-anchor="middle" font-size="12px"><text x="342.5" y="52.5">Cross account / cross region</text></g><rect x="263" y="220" width="152" height="32" fill="none" stroke="none" pointer-events="all"/><g fill="rgb(0, 0, 0)" font-family="Helvetica" text-anchor="middle" font-size="12px"><text x="338.5" y="240.5">Bucket or object recovery</text></g><rect x="255" y="264" width="176" height="32" fill="none" stroke="none" pointer-events="all"/><g fill="rgb(0, 0, 0)" font-family="Helvetica" text-anchor="middle" font-size="12px"><text x="342.5" y="284.5">Objects incremental backups</text></g><rect x="146" y="392" width="104" height="32" fill="none" stroke="none" pointer-events="all"/><g fill="rgb(0, 0, 0)" font-family="Helvetica" text-anchor="middle" font-size="12px"><text x="197.5" y="412.5">Index metadata</text></g><rect x="315" y="312" width="88" height="32" fill="none" stroke="none" pointer-events="all"/><g fill="rgb(0, 0, 0)" font-family="Helvetica" text-anchor="middle" font-size="12px"><text x="358.5" y="332.5">Query results</text></g></g></svg>