<svg xmlns="http://www.w3.org/2000/svg" xmlns:xlink="http://www.w3.org/1999/xlink" version="1.1" width="770px" height="653px" viewBox="-0.5 -0.5 770 653"><rect width="100%" height="100%" fill="gray" opacity=".5" /><defs/><g><g><rect x="242.25" y="29.07" width="164.73" height="77.52" fill="#ccffff" stroke="rgb(0, 0, 0)" stroke-width="0.97" pointer-events="all"/></g><g><g fill="rgb(0, 0, 0)" font-family="Helvetica" text-anchor="middle" font-size="11.628px"><text x="324.12" y="72.18">Snapshots</text></g></g><g><path d="M 324.62 186.05 L 324.62 112.76" fill="none" stroke="rgb(0, 0, 0)" stroke-width="0.97" stroke-miterlimit="10" pointer-events="stroke"/><path d="M 324.62 107.67 L 328.01 114.46 L 324.62 112.76 L 321.22 114.46 Z" fill="rgb(0, 0, 0)" stroke="rgb(0, 0, 0)" stroke-width="0.97" stroke-miterlimit="10" pointer-events="all"/></g><g><path d="M 406.98 224.81 L 526.78 224.81" fill="none" stroke="rgb(0, 0, 0)" stroke-width="0.97" stroke-miterlimit="10" pointer-events="stroke"/><path d="M 531.87 224.81 L 525.08 228.2 L 526.78 224.81 L 525.08 221.42 Z" fill="rgb(0, 0, 0)" stroke="rgb(0, 0, 0)" stroke-width="0.97" stroke-miterlimit="10" pointer-events="all"/></g><g><rect x="242.25" y="186.05" width="164.73" height="77.52" fill="#ccffff" stroke="rgb(0, 0, 0)" stroke-width="0.97" pointer-events="all"/></g><g><g fill="rgb(0, 0, 0)" font-family="Helvetica" text-anchor="middle" font-size="11.628px"><text x="324.12" y="229.15">Rubrik CDM</text></g></g><g><path d="M 324.62 379.85 L 324.62 269.74" fill="none" stroke="rgb(0, 0, 0)" stroke-width="0.97" stroke-miterlimit="10" pointer-events="stroke"/><path d="M 324.62 264.65 L 328.01 271.43 L 324.62 269.74 L 321.22 271.43 Z" fill="rgb(0, 0, 0)" stroke="rgb(0, 0, 0)" stroke-width="0.97" stroke-miterlimit="10" pointer-events="all"/></g><g><rect x="242.25" y="379.85" width="164.73" height="77.52" fill="#ccffff" stroke="rgb(0, 0, 0)" stroke-width="0.97" pointer-events="all"/></g><g><g fill="rgb(0, 0, 0)" font-family="Helvetica" text-anchor="middle" font-size="11.628px"><text x="324.12" y="416.17">Rubrik</text><text x="324.12" y="429.74"> Data Security Posture</text></g></g><g><rect x="532.95" y="186.05" width="161.82" height="77.52" fill="#99ccff" stroke="rgb(0, 0, 0)" stroke-width="0.97" pointer-events="all"/></g><g><g fill="rgb(0, 0, 0)" font-family="Helvetica" text-anchor="middle" font-size="11.628px"><text x="613.36" y="229.15">Drop Target</text></g></g><g><path d="M 613.86 379.85 L 613.86 269.74" fill="none" stroke="rgb(0, 0, 0)" stroke-width="0.97" stroke-miterlimit="10" pointer-events="stroke"/><path d="M 613.86 264.65 L 617.25 271.43 L 613.86 269.74 L 610.47 271.43 Z" fill="rgb(0, 0, 0)" stroke="rgb(0, 0, 0)" stroke-width="0.97" stroke-miterlimit="10" pointer-events="all"/></g><g><path d="M 613.86 457.37 L 613.86 491.28 L 406.4 491.28 L 406.38 542.28" fill="none" stroke="rgb(0, 0, 0)" stroke-width="0.97" stroke-miterlimit="10" pointer-events="stroke"/><path d="M 406.37 547.37 L 402.99 540.59 L 406.38 542.28 L 409.77 540.59 Z" fill="rgb(0, 0, 0)" stroke="rgb(0, 0, 0)" stroke-width="0.97" stroke-miterlimit="10" pointer-events="all"/></g><g><rect x="532.95" y="379.85" width="161.82" height="77.52" fill="#99ccff" stroke="rgb(0, 0, 0)" stroke-width="0.97" pointer-events="all"/></g><g><g fill="rgb(0, 0, 0)" font-family="Helvetica" text-anchor="middle" font-size="11.628px"><text x="613.36" y="422.95">Zscaler Indexer</text></g></g><g><path d="M 92.06 282.95 L 92.06 224.81 L 236.08 224.81" fill="none" stroke="rgb(0, 0, 0)" stroke-width="0.97" stroke-miterlimit="10" pointer-events="stroke"/><path d="M 241.17 224.81 L 234.38 228.2 L 236.08 224.81 L 234.38 221.42 Z" fill="rgb(0, 0, 0)" stroke="rgb(0, 0, 0)" stroke-width="0.97" stroke-miterlimit="10" pointer-events="all"/></g><g><path d="M 92.06 360.47 L 92.06 418.61 L 236.08 418.61" fill="none" stroke="rgb(0, 0, 0)" stroke-width="0.97" stroke-miterlimit="10" pointer-events="stroke"/><path d="M 241.17 418.61 L 234.38 422 L 236.08 418.61 L 234.38 415.22 Z" fill="rgb(0, 0, 0)" stroke="rgb(0, 0, 0)" stroke-width="0.97" stroke-miterlimit="10" pointer-events="all"/></g><g><rect x="9.69" y="282.95" width="164.73" height="77.52" fill="#99ccff" stroke="rgb(0, 0, 0)" stroke-width="0.97" pointer-events="all"/></g><g><g fill="rgb(0, 0, 0)" font-family="Helvetica" text-anchor="middle" font-size="11.628px"><text x="91.56" y="326.05">Data Loss Prevention (DLP)</text></g></g><g><path d="M 331.16 554.27 C 291.04 554.27 281.01 583.34 313.1 589.15 C 281.01 601.94 317.11 629.85 343.19 618.22 C 361.24 641.48 421.42 641.48 441.48 618.22 C 481.59 618.22 481.59 594.97 456.52 583.34 C 481.59 560.08 441.48 536.83 406.37 548.45 C 381.3 531.01 341.18 531.01 331.16 554.27 Z" fill="#99ccff" stroke="rgb(0, 0, 0)" stroke-width="0.97" stroke-miterlimit="10" pointer-events="all"/></g><g><g fill="rgb(0, 0, 0)" font-family="Helvetica" text-anchor="middle" font-size="11.628px"><text x="380.8" y="587.68">Zscaler</text></g></g><g><path d="M 203.49 282.95 L 203.49 11.63" fill="none" stroke="rgb(0, 0, 0)" stroke-width="3.88" stroke-miterlimit="10" stroke-dasharray="3.88 11.63" pointer-events="stroke"/></g><g><path d="M 200.58 11.63 L 752.91 11.63" fill="none" stroke="rgb(0, 0, 0)" stroke-width="3.88" stroke-miterlimit="10" stroke-dasharray="3.88 11.63" pointer-events="stroke"/></g><g><path d="M 755.82 467.06 L 755.82 11.63" fill="none" stroke="rgb(0, 0, 0)" stroke-width="3.88" stroke-miterlimit="10" stroke-dasharray="3.88 11.63" pointer-events="stroke"/></g><g><path d="M 503.88 472.87 L 755.82 472.87" fill="none" stroke="rgb(0, 0, 0)" stroke-width="3.88" stroke-miterlimit="10" stroke-dasharray="3.88 11.63" pointer-events="stroke"/></g><g><path d="M 203.49 282.95 L 494.19 282.95" fill="none" stroke="rgb(0, 0, 0)" stroke-width="3.88" stroke-miterlimit="10" stroke-dasharray="3.88 11.63" pointer-events="stroke"/></g><g><path d="M 500.97 282.95 L 500.97 467.06" fill="none" stroke="rgb(0, 0, 0)" stroke-width="3.88" stroke-miterlimit="10" stroke-dasharray="3.88 11.63" pointer-events="stroke"/></g><g><rect x="591.09" y="29.07" width="125.97" height="29.07" fill="none" stroke="none" pointer-events="all"/></g><g><g fill="rgb(0, 0, 0)" font-family="Helvetica" text-anchor="middle" font-size="11.628px"><text x="653.58" y="47.95">Production Environment</text></g></g><g><path d="M 337.45 154.8 L 341.45 151.04 Q 345.45 147.29 352.51 153.92 L 356.97 158.12 Q 361.44 162.31 354.37 168.94 L 349.91 173.13 Q 345.45 177.33 338.39 170.69 L 333.92 166.5 Q 329.46 162.31 333.46 158.55 Z" fill="#2b94cc" stroke="none" pointer-events="all"/></g><g><g fill="rgb(0, 0, 0)" font-family="Helvetica" text-anchor="middle" font-size="11.628px"><text x="344.95" y="166.65">1</text></g></g><g><path d="M 337.45 348.6 L 341.45 344.84 Q 345.45 341.09 352.51 347.72 L 356.97 351.92 Q 361.44 356.11 354.37 362.74 L 349.91 366.93 Q 345.45 371.13 338.39 364.49 L 333.92 360.3 Q 329.46 356.11 333.46 352.35 Z" fill="#2b94cc" stroke="none" pointer-events="all"/></g><g><g fill="rgb(0, 0, 0)" font-family="Helvetica" text-anchor="middle" font-size="11.628px"><text x="344.95" y="360.45">2</text></g></g><g><path d="M 56.44 378.64 L 60.44 374.88 Q 64.44 371.13 71.5 377.76 L 75.96 381.95 Q 80.43 386.15 73.36 392.78 L 68.9 396.97 Q 64.44 401.17 57.38 394.53 L 52.91 390.34 Q 48.45 386.15 52.45 382.39 Z" fill="#2b94cc" stroke="none" pointer-events="all"/></g><g><g fill="rgb(0, 0, 0)" font-family="Helvetica" text-anchor="middle" font-size="11.628px"><text x="63.94" y="390.49">3</text></g></g><g><path d="M 56.44 251.7 L 60.44 247.94 Q 64.44 244.19 71.5 250.82 L 75.96 255.02 Q 80.43 259.21 73.36 265.84 L 68.9 270.03 Q 64.44 274.23 57.38 267.59 L 52.91 263.4 Q 48.45 259.21 52.45 255.45 Z" fill="#2b94cc" stroke="none" pointer-events="all"/></g><g><g fill="rgb(0, 0, 0)" font-family="Helvetica" text-anchor="middle" font-size="11.628px"><text x="63.94" y="263.55">4</text></g></g><g><path d="M 424.66 193.56 L 428.66 189.8 Q 432.66 186.05 439.72 192.68 L 444.18 196.88 Q 448.65 201.07 441.58 207.7 L 437.12 211.89 Q 432.66 216.09 425.6 209.45 L 421.13 205.26 Q 416.67 201.07 420.67 197.31 Z" fill="#2b94cc" stroke="none" pointer-events="all"/></g><g><g fill="rgb(0, 0, 0)" font-family="Helvetica" text-anchor="middle" font-size="11.628px"><text x="432.16" y="205.41">5</text></g></g><g><path d="M 628.15 348.6 L 632.15 344.84 Q 636.15 341.09 643.21 347.72 L 647.67 351.92 Q 652.14 356.11 645.07 362.74 L 640.61 366.93 Q 636.15 371.13 629.09 364.49 L 624.62 360.3 Q 620.16 356.11 624.16 352.35 Z" fill="#2b94cc" stroke="none" pointer-events="all"/></g><g><g fill="rgb(0, 0, 0)" font-family="Helvetica" text-anchor="middle" font-size="11.628px"><text x="635.65" y="360.45">6</text></g></g><g><path d="M 589.39 502.67 L 593.39 498.91 Q 597.39 495.16 604.45 501.79 L 608.91 505.99 Q 613.38 510.18 606.31 516.81 L 601.85 521.01 Q 597.39 525.2 590.33 518.56 L 585.86 514.37 Q 581.4 510.18 585.4 506.42 Z" fill="#2b94cc" stroke="none" pointer-events="all"/></g><g><g fill="rgb(0, 0, 0)" font-family="Helvetica" text-anchor="middle" font-size="11.628px"><text x="596.89" y="514.52">7</text></g></g></g></svg>