<svg xmlns="http://www.w3.org/2000/svg" viewBox="0 0 24 24" fill="none" stroke="#be185d" stroke-width="1.6" stroke-linecap="round" stroke-linejoin="round">
  <path d="M2 6c0 0 4-1 6 0v13c-2-1-6 0-6 0V6z" fill="rgba(190,24,93,0.15)"/>
  <path d="M22 6c0 0-4-1-6 0v13c2-1 6 0 6 0V6z" fill="rgba(190,24,93,0.15)"/>
  <line x1="12" y1="6" x2="12" y2="19" stroke-width="1.3"/>
  <line x1="5" y1="9" x2="9" y2="9" stroke-width="1.1"/>
  <line x1="5" y1="12" x2="9" y2="12" stroke-width="1.1"/>
  <line x1="5" y1="15" x2="9" y2="15" stroke-width="1.1"/>
  <rect x="14.5" y="2" width="7" height="7" rx="1.5" fill="rgba(190,24,93,0.72)" stroke="none"/>
  <path d="M16.5 7l3.5-3.5M20 7v-3.5h-3.5" stroke="#fff" stroke-width="1.2" stroke-linecap="round" stroke-linejoin="round"/>
</svg>
