<svg width="24" height="24" viewBox="0 0 24 24" fill="none" xmlns="http://www.w3.org/2000/svg">
<path fill-rule="evenodd" clip-rule="evenodd" d="M10.7021 8.9043C11.2062 8.95562 11.5995 9.38185 11.5996 9.89941V11.3994H12.5996V9.89941C12.5997 9.34736 13.0476 8.89961 13.5996 8.89941H15.5996L15.7021 8.9043C16.2062 8.95562 16.5995 9.38185 16.5996 9.89941V11.8994C16.5996 12.4517 16.1519 12.8994 15.5996 12.8994H14.0996V13.8994H15.5996L15.7021 13.9043C16.2062 13.9556 16.5995 14.3818 16.5996 14.8994V16.8994C16.5996 17.4517 16.1519 17.8994 15.5996 17.8994H13.5996C13.0821 17.8992 12.6558 17.506 12.6045 17.002L12.5996 16.8994V15.3994H11.5996V16.8994C11.5996 17.4517 11.1519 17.8994 10.5996 17.8994H8.59961C8.0821 17.8992 7.65581 17.506 7.60449 17.002L7.59961 16.8994V14.8994C7.59974 14.3474 8.04757 13.8996 8.59961 13.8994H10.0996V12.8994H8.59961C8.0821 12.8992 7.65581 12.506 7.60449 12.002L7.59961 11.8994V9.89941C7.59974 9.34736 8.04757 8.89961 8.59961 8.89941H10.5996L10.7021 8.9043ZM8.59961 16.8994H10.5996V15.3896C10.3487 15.3473 10.1525 15.1504 10.1104 14.8994H8.59961V16.8994ZM14.0898 14.8994C14.0477 15.1507 13.8509 15.3475 13.5996 15.3896V16.8994H15.5996V14.8994H14.0898ZM13.5996 11.4092C13.8508 11.4512 14.0475 11.6484 14.0898 11.8994H15.5996V9.89941H13.5996V11.4092ZM8.59961 11.8994H10.1104C10.1527 11.6486 10.3488 11.4515 10.5996 11.4092V9.89941H8.59961V11.8994Z" fill="white"/>
<path fill-rule="evenodd" clip-rule="evenodd" d="M9.43262 3.0498C10.0071 3.04982 10.5419 3.32961 10.874 3.79395L10.876 3.79297L12.249 5.59668L12.2725 5.62988C12.3233 5.70478 12.4091 5.74992 12.5 5.75H19.1328C20.678 5.75015 21.9297 7.00189 21.9326 8.54492L22 18.1445V18.1494C22 19.6961 20.7469 20.95 19.2002 20.9502H4.84961C3.30297 20.95 2.0498 19.6961 2.0498 18.1494V5.84961C2.05004 4.30312 3.30312 3.05004 4.84961 3.0498H9.43262ZM4.84961 4.5498C4.13155 4.55004 3.55004 5.13155 3.5498 5.84961V18.1494C3.5498 18.8677 4.1314 19.45 4.84961 19.4502H19.2002C19.9166 19.45 20.4971 18.871 20.5 18.1553L20.4326 8.55566V8.5498C20.4324 7.83247 19.8507 7.25015 19.1328 7.25H12.5C11.9258 7.24992 11.3882 6.97092 11.0557 6.50391L9.68262 4.70215C9.67472 4.69177 9.66652 4.6807 9.65918 4.66992C9.6078 4.59483 9.5229 4.54982 9.43262 4.5498H4.84961Z" fill="white"/>
</svg>
