<?xml version="1.0" encoding="UTF-8"?>
<svg width="24" height="24" viewBox="0 0 24 24" fill="none" xmlns="http://www.w3.org/2000/svg">
<path d="M17.9776 17.1685C17.9776 17.1685 17.8976 17.239 17.8475 17.2692C16.8269 17.8836 15.5262 17.7225 14.6857 16.8764L12.8446 15.023C11.834 14.0057 11.834 12.3538 12.8446 11.3365C13.8552 10.3191 15.4962 10.3191 16.5068 11.3365L16.6969 11.5278C16.967 11.7998 16.967 12.2531 16.6969 12.525C16.4267 12.797 15.9764 12.797 15.7063 12.525L15.5162 12.3337C15.0559 11.8703 14.2954 11.8703 13.8352 12.3337C13.3749 12.797 13.3749 13.5625 13.8352 14.0258L15.6763 15.8792C16.0665 16.272 16.6568 16.3425 17.1271 16.0605C17.4573 15.8591 17.8876 15.9699 18.0877 16.3023C18.2578 16.5843 18.2078 16.9368 17.9876 17.1685H17.9776Z" fill="#2b94cc"/>
<path d="M21.1795 19.737C20.1689 20.7543 18.5279 20.7543 17.5174 19.737L17.3272 19.5456C17.0571 19.2737 17.0571 18.8204 17.3272 18.5484C17.5974 18.2765 18.0477 18.2765 18.3178 18.5484L18.5079 18.7398C18.9682 19.2032 19.7287 19.2032 20.1889 18.7398C20.6492 18.2765 20.6492 17.511 20.1889 17.0476L18.3478 15.1943C17.9576 14.8014 17.3673 14.7309 16.897 15.013C16.5668 15.2144 16.1365 15.1036 15.9364 14.7712C15.7363 14.4388 15.8464 14.0057 16.1766 13.8043C17.1972 13.1898 18.4979 13.351 19.3384 14.1971L21.1795 16.0504C22.1901 17.0678 22.1901 18.7197 21.1795 19.737Z" fill="#2b94cc"/>
<path d="M8.65211 17.9038C6.63092 17.9038 4.71979 16.6447 4.16946 14.6806C3.40901 11.9912 5.31014 9.39246 7.90167 9.03992H8.60208L8.75217 8.57658C9.25247 7.05562 10.4732 5.81669 12.0341 5.50444C14.8057 4.95045 17.2872 7.14627 17.3973 9.84573V10.3091L19.0182 11.9408C19.0182 11.9408 19.0683 11.9811 19.0883 12.0013L21.97 14.9022C21.99 14.7309 22 14.5496 22 14.3784C22 12.4747 21.0094 10.6717 19.3184 9.65435C19.3084 9.65435 19.2984 9.6342 19.2984 9.61406C19.0883 6.19945 16.2866 3.5 12.8946 3.5C10.4031 3.5 8.11179 5.00081 7.10119 7.20671C7.10119 7.21678 7.08118 7.22686 7.07118 7.23693C3.66917 7.93194 1.42784 11.2357 2.12825 14.7611C2.72861 17.8232 5.58029 19.9183 8.68213 19.9183H16.0565L14.0553 17.9038H8.65211Z" fill="#2b94cc"/>
</svg>
