<svg width="22" height="22" viewBox="0 0 22 22" fill="none" xmlns="http://www.w3.org/2000/svg">
<path d="M11 22C17.0751 22 22 17.0751 22 11C22 4.92487 17.0751 0 11 0C4.92487 0 0 4.92487 0 11C0 17.0751 4.92487 22 11 22Z" fill="white"/>
<path d="M11 0C4.92 0 0 4.92 0 11C0 17.08 4.92 22 11 22C17.08 22 22 17.08 22 11C22 4.92 17.08 0 11 0ZM16.68 16.6C16.68 16.94 16.4 17.22 16.08 17.22H5.92C5.6 17.22 5.32 16.94 5.32 16.6V15.76H16.68V16.6ZM16.64 13.68H5.36L3.78 8.44C3.6 7.82 4.22 7.28 4.8 7.54L7.5 9.08C7.9 9.3 8.4 9.12 8.58 8.7L10.3 4.32C10.58 3.72 11.42 3.72 11.7 4.32L13.42 8.7C13.6 9.12 14.1 9.3 14.5 9.08L17.2 7.54C17.78 7.28 18.4 7.82 18.22 8.44L16.64 13.68Z" fill="#2b94cc"/>
</svg>
