<svg width="24" height="24" viewBox="0 0 24 24" fill="none" xmlns="http://www.w3.org/2000/svg">
    <path d="M12 21C7.02944 21 3 16.9706 3 12C3 7.02944 7.02944 3 12 3C16.9706 3 21 7.02944 21 12C21 16.9706 16.9706 21 12 21Z" fill="#FFB721"/>
    
    <path d="M12 13.5996C12.72 13.5996 13.2002 13.1798 13.2002 12.5498V7.5498C13.2001 6.91992 12.7199 6.50001 12 6.5C11.2801 6.5 10.7999 6.91991 10.7998 7.5498V12.5498C10.7998 13.1798 11.28 13.5996 12 13.5996ZM12 17.5C12.7099 17.5 13.2996 16.91 13.2998 16.2002C13.2998 15.4902 12.71 14.8994 12 14.8994C11.29 14.8994 10.7002 15.4902 10.7002 16.2002C10.7004 16.9101 11.2901 17.5 12 17.5Z" fill="black"/>
</svg>
