<svg width="24" height="24" viewBox="0 0 24 24" fill="none" xmlns="http://www.w3.org/2000/svg">
<path d="M11.9998 2C14.6519 2 17.1957 3.05341 19.0711 4.92871C20.9465 6.80407 21.9998 9.34784 21.9998 12C21.9998 14.6522 20.9465 17.1959 19.0711 19.0713C17.1957 20.9466 14.6519 22 11.9998 22C11.5857 21.9999 11.2498 21.6641 11.2498 21.25C11.2498 20.8359 11.5857 20.5001 11.9998 20.5C14.2541 20.5 16.4165 19.6047 18.0105 18.0107C19.6046 16.4167 20.4998 14.2543 20.4998 12C20.4998 9.74566 19.6046 7.58332 18.0105 5.98926C16.4165 4.39526 14.2541 3.5 11.9998 3.5C11.5857 3.4999 11.2498 3.16415 11.2498 2.75C11.2498 2.33585 11.5857 2.0001 11.9998 2Z" fill="white"/>
<path d="M11.9998 6C13.1569 6 14.2892 6.33502 15.2605 6.96387C16.2319 7.59277 17.0009 8.48911 17.4744 9.54492C17.9478 10.6006 18.1058 11.7706 17.9295 12.9141C17.7531 14.0577 17.2498 15.1261 16.4803 15.9902C15.7107 16.8543 14.7072 17.4781 13.5916 17.7852C12.4761 18.092 11.2954 18.0702 10.1922 17.7217C9.08886 17.3731 8.10956 16.7126 7.37285 15.8203C6.63623 14.9281 6.17336 13.8416 6.03985 12.6924C5.9921 12.2811 6.28685 11.9083 6.69805 11.8604C7.10936 11.8126 7.4821 12.1073 7.53008 12.5186C7.63017 13.3806 7.97756 14.196 8.53008 14.8652C9.08258 15.5343 9.81696 16.0296 10.6443 16.291C11.4718 16.5524 12.3575 16.5691 13.1941 16.3389C14.0307 16.1086 14.783 15.6411 15.3602 14.9932C15.9374 14.3451 16.3148 13.5433 16.4471 12.6855C16.5793 11.8279 16.4614 10.95 16.1063 10.1582C15.7511 9.36639 15.1736 8.69432 14.4451 8.22266C13.7167 7.75115 12.8675 7.5 11.9998 7.5C11.5857 7.49989 11.2498 7.16415 11.2498 6.75C11.2498 6.33585 11.5857 6.00011 11.9998 6Z" fill="white"/>
<path d="M11.9998 10.5C12.8282 10.5 13.4998 11.1716 13.4998 12C13.4998 12.8284 12.8282 13.5 11.9998 13.5C11.1715 13.4999 10.4998 12.8284 10.4998 12C10.4998 11.1716 11.1715 10.5001 11.9998 10.5Z" fill="white"/>
</svg>
