<svg xmlns="http://www.w3.org/2000/svg" viewBox="0 0 24 24" fill="none" stroke="#0284c7" stroke-width="1.5" stroke-linecap="round" stroke-linejoin="round">
  <circle cx="12" cy="12" r="3" fill="rgba(2,132,199,0.3)"/>
  <circle cx="12" cy="12" r="1.2" fill="#0284c7" stroke="none"/>
  <circle cx="12" cy="3.5" r="2.5" fill="rgba(2,132,199,0.18)"/>
  <circle cx="12" cy="3" r=".9" fill="#0284c7" stroke="none"/>
  <path d="M10 5.5c0-.5.9-.8 2-.8s2 .3 2 .8" stroke-width="1.1"/>
  <circle cx="4" cy="18" r="2.5" fill="rgba(2,132,199,0.18)"/>
  <circle cx="4" cy="17.5" r=".9" fill="#0284c7" stroke="none"/>
  <path d="M2 20c0-.5.9-.8 2-.8s2 .3 2 .8" stroke-width="1.1"/>
  <circle cx="20" cy="18" r="2.5" fill="rgba(2,132,199,0.18)"/>
  <circle cx="20" cy="17.5" r=".9" fill="#0284c7" stroke="none"/>
  <path d="M18 20c0-.5.9-.8 2-.8s2 .3 2 .8" stroke-width="1.1"/>
  <line x1="12" y1="9" x2="12" y2="6" stroke-width="1.3"/>
  <line x1="9.4" y1="10.3" x2="6" y2="16" stroke-width="1.3"/>
  <line x1="14.6" y1="10.3" x2="18" y2="16" stroke-width="1.3"/>
</svg>
