<svg width="24" height="24" viewBox="0 0 24 24" fill="none" xmlns="http://www.w3.org/2000/svg">
<path d="M16.8926 14.8925C16.8926 15.8568 12.0713 18.7499 12.0713 18.7499V11.9999H16.8926C16.8926 11.9999 16.8926 13.9281 16.8926 14.8925Z" fill="white"/>
<path d="M12.0713 11.9999H7.25V7.83196C7.25 7.43767 7.49036 7.0829 7.85645 6.93646L12.0713 5.24993V11.9999Z" fill="white"/>
<path fill-rule="evenodd" clip-rule="evenodd" d="M11.2832 2.164C11.7447 1.98684 12.2553 1.98684 12.7168 2.164L18.7168 4.46868C19.4895 4.76557 20 5.50611 20 6.33392V14.8886C19.9997 18.3139 14.574 21.0633 12.6602 21.8495L12.499 21.9072C12.1192 22.0217 11.7156 22.0023 11.3438 21.8495C9.42973 21.0632 4.00029 18.3137 4 14.8886V6.33392C4 5.55805 4.44819 4.85926 5.14062 4.53021L5.2832 4.46868L11.2832 2.164ZM12.1797 3.56439C12.0643 3.52005 11.9357 3.52005 11.8203 3.56439L5.82031 5.86907C5.62541 5.94412 5.5 6.12915 5.5 6.33392C5.5 8.29542 5.49999 11.9846 5.5 14.8886C5.50015 15.8142 6.28399 16.9095 7.83496 18.0361C9.28857 19.0919 10.9985 20.0866 11.9141 20.4628C11.9736 20.4872 12.0303 20.4871 12.0898 20.4628C13.0054 20.0867 14.7113 19.0919 16.165 18.0361C17.716 16.9095 18.4999 15.8142 18.5 14.8886V6.33392C18.5 6.12914 18.3746 5.94412 18.1797 5.86907L12.1797 3.56439Z" fill="white"/>
</svg>
