<svg width="24" height="24" viewBox="0 0 24 24" fill="none" xmlns="http://www.w3.org/2000/svg">
<path d="M16.7627 9.16797C16.9534 9.16799 17.1421 9.20767 17.3164 9.28516L20.3799 10.5986C20.5734 10.6844 20.7387 10.8235 20.8555 11C20.9723 11.1767 21.036 11.3839 21.0391 11.5957V16.5312C21.0388 18.3866 17.6775 19.9206 17.001 20.209C16.9259 20.2411 16.8443 20.2569 16.7627 20.2539C16.6885 20.2537 16.6151 20.238 16.5469 20.209C15.871 19.9209 12.509 18.3869 12.5088 16.5312V11.5957C12.5118 11.3839 12.5746 11.1767 12.6914 11C12.8082 10.8233 12.9743 10.6844 13.168 10.5986L16.209 9.28516C16.3832 9.20772 16.572 9.16797 16.7627 9.16797Z" fill="white"/>
<path d="M6.46094 14.5869C6.79827 14.5869 7.07227 14.8609 7.07227 15.1982V18.0488C7.07205 18.386 6.79815 18.6592 6.46094 18.6592H3.61035C3.27335 18.6589 3.00021 18.3859 3 18.0488V15.1982C3 14.8611 3.27322 14.5872 3.61035 14.5869H6.46094Z" fill="white"/>
<path d="M10.7773 16.8125C10.7774 17.5247 10.9956 18.1452 11.2812 18.6592H8.9043C8.56715 18.6591 8.29415 18.386 8.29395 18.0488V15.1982C8.29395 14.8609 8.56702 14.587 8.9043 14.5869H10.7773V16.8125Z" fill="white"/>
<path d="M6.46094 9.29395C6.79823 9.29395 7.07218 9.56702 7.07227 9.9043V12.7549C7.07225 13.0922 6.79826 13.3652 6.46094 13.3652H3.61035C3.27323 13.365 3.00002 13.0921 3 12.7549V9.9043C3.00007 9.56717 3.27327 9.29419 3.61035 9.29395H6.46094Z" fill="white"/>
<path d="M11.7549 9.29395C11.8391 9.29395 11.9192 9.31097 11.9922 9.3418C11.7552 9.51242 11.5443 9.7198 11.3672 9.95703L11.25 10.1279C10.95 10.5956 10.7852 11.1425 10.7773 11.7031V13.3652H8.9043C8.56703 13.3652 8.29397 13.0922 8.29395 12.7549V9.9043C8.29402 9.56707 8.56707 9.29402 8.9043 9.29395H11.7549Z" fill="white"/>
<path d="M6.46094 4C6.79812 4 7.07202 4.27322 7.07227 4.61035V7.46094C7.07227 7.79827 6.79827 8.07227 6.46094 8.07227H3.61035C3.27322 8.07202 3 7.79812 3 7.46094V4.61035C3.00024 4.27337 3.27337 4.00024 3.61035 4H6.46094Z" fill="white"/>
<path d="M11.7549 4C12.0921 4.00002 12.365 4.27323 12.3652 4.61035V7.46094C12.3652 7.79826 12.0922 8.07225 11.7549 8.07227H8.9043C8.56702 8.07218 8.29395 7.79823 8.29395 7.46094V4.61035C8.29419 4.27327 8.56717 4.00007 8.9043 4H11.7549Z" fill="white"/>
<path d="M17.0488 4C17.3859 4.00021 17.6589 4.27335 17.6592 4.61035V7.46094C17.6592 7.49897 17.6541 7.53616 17.6475 7.57227C17.4137 7.50067 17.1728 7.45464 16.9287 7.44141L16.7666 7.4375C16.3326 7.4375 15.9025 7.53192 15.5059 7.71387L14.7002 8.07227H14.1982C13.8609 8.07227 13.5869 7.79827 13.5869 7.46094V4.61035C13.5872 4.27322 13.8611 4 14.1982 4H17.0488Z" fill="white"/>
</svg>
