<svg width="24" height="24" viewBox="0 0 24 24" fill="none" xmlns="http://www.w3.org/2000/svg">
<path fill-rule="evenodd" clip-rule="evenodd" d="M18.5412 4.39936C18.8341 4.10646 19.3088 4.10646 19.6017 4.39936C19.8946 4.69225 19.8946 5.16703 19.6017 5.4599L16.5968 8.46479L16.7736 8.64154C18.2378 10.1059 18.2377 12.4798 16.7736 13.9443L15.8888 14.8281L16.0666 15.0058C16.3594 15.2986 16.3592 15.7734 16.0666 16.0663C15.9199 16.213 15.7275 16.2853 15.5353 16.2851C15.3433 16.2851 15.1515 16.2128 15.005 16.0663L14.8283 15.8896L13.9445 16.7744C12.48 18.2388 10.1052 18.2388 8.64077 16.7744L8.46401 16.5976L5.45913 19.6025C5.16624 19.8954 4.69147 19.8954 4.39858 19.6025C4.10574 19.3096 4.10571 18.8348 4.39858 18.5419L7.40346 15.5371L7.22671 15.3603C5.76228 13.8958 5.76225 11.521 7.22671 10.0566L8.10952 9.17182L7.93374 8.99604C7.64084 8.70314 7.64084 8.22741 7.93374 7.93451C8.08012 7.78822 8.2722 7.71581 8.46401 7.71576C8.65617 7.71551 8.84859 7.78799 8.99526 7.93451L9.17202 8.11127L10.0558 7.22748C11.5203 5.76302 13.8951 5.76302 15.3595 7.22748L15.5363 7.40424L18.5412 4.39936ZM8.28725 11.1171C7.40859 11.9958 7.40862 13.4211 8.28725 14.2997L9.70132 15.7138C10.58 16.5925 12.0053 16.5925 12.8839 15.7138L13.7677 14.829L9.17007 10.2324L8.28725 11.1171ZM14.299 8.28803C13.4203 7.40935 11.995 7.40935 11.1164 8.28803L10.2326 9.17182L14.8283 13.7675L15.713 12.8837C16.5914 12.0051 16.5915 10.5807 15.713 9.70209L14.299 8.28803Z" fill="white"/>
</svg>
