<svg xmlns="http://www.w3.org/2000/svg" viewBox="0 0 24 24" fill="none" stroke="#7c3aed" stroke-width="1.6" stroke-linecap="round" stroke-linejoin="round">
  <path d="M6.5 10a3 3 0 0 1 .3-5.8 4 4 0 0 1 7.5 1A2.5 2.5 0 1 1 17.5 10H6.5" fill="rgba(124,58,237,0.18)"/>
  <rect x="4" y="13" width="16" height="3.5" rx="1" fill="rgba(124,58,237,0.12)"/>
  <circle cx="7.5" cy="14.75" r=".9" fill="#7c3aed" stroke="none"/>
  <line x1="10" y1="14.75" x2="17" y2="14.75" stroke-width="1.2" stroke-dasharray="1.5 1.5"/>
  <path d="M5 20c0 .9 3.1 1.5 7 1.5s7-.6 7-1.5v-2.5" stroke-width="1.4"/>
  <path d="M5 17.5c0 .9 3.1 1.5 7 1.5s7-.6 7-1.5" stroke-width="1.4"/>
</svg>
