<svg width="24" height="24" viewBox="0 0 24 24" fill="none" xmlns="http://www.w3.org/2000/svg">
<path d="M6.83984 4.7998C7.39204 4.7999 7.83984 5.24758 7.83984 5.7998C7.83984 6.35203 7.39204 6.79971 6.83984 6.7998C6.28771 6.79962 5.83984 6.35198 5.83984 5.7998C5.83984 5.24763 6.28771 4.79999 6.83984 4.7998Z" fill="white"/>
<path d="M15.7393 4.7998C15.8497 4.7998 15.9395 4.88954 15.9395 5V6.59961C15.9395 6.71007 15.8497 6.7998 15.7393 6.7998H10.1396L10.0996 6.7959C10.0823 6.79233 10.0662 6.78505 10.0508 6.77734C10.0364 6.77009 10.0238 6.76036 10.0117 6.75C10.0056 6.74479 9.99862 6.74031 9.99316 6.73438C9.98272 6.72296 9.9744 6.70989 9.9668 6.69629C9.9507 6.66748 9.93945 6.63495 9.93945 6.59961V5C9.93945 4.96435 9.95044 4.93133 9.9668 4.90234C9.97444 4.88881 9.98271 4.8756 9.99316 4.86426C9.99862 4.85836 10.0056 4.85381 10.0117 4.84863C10.0238 4.83836 10.0365 4.82848 10.0508 4.82129C10.0775 4.80795 10.1077 4.79986 10.1396 4.7998H15.7393Z" fill="white"/>
<path fill-rule="evenodd" clip-rule="evenodd" d="M17.1396 2C18.2442 2 19.1396 2.89543 19.1396 4V9.74805H13V9.75H4.63965V14.25H13V15.75H4.63965V20C4.63965 20.276 4.86366 20.4998 5.13965 20.5H13V22H5.13965C4.10415 21.9998 3.25264 21.2127 3.15039 20.2041L3.13965 20V4C3.13965 2.89554 4.03523 2.00018 5.13965 2H17.1396ZM5.13965 3.5C4.86366 3.50018 4.63965 3.72397 4.63965 4V8.25H17.6396V4C17.6396 3.72386 17.4158 3.5 17.1396 3.5H5.13965Z" fill="white"/>
<path d="M6.83984 17.2002C7.39204 17.2003 7.83984 17.648 7.83984 18.2002C7.83984 18.7524 7.39204 19.2001 6.83984 19.2002C6.28771 19.2 5.83984 18.7524 5.83984 18.2002C5.83984 17.648 6.28771 17.2004 6.83984 17.2002Z" fill="white"/>
<path d="M13 19.2002H10.1396L10.0996 19.1963C10.0823 19.1927 10.0662 19.1854 10.0508 19.1777C10.0364 19.1705 10.0238 19.1607 10.0117 19.1504C10.0056 19.1452 9.99862 19.1407 9.99316 19.1348C9.98272 19.1234 9.9744 19.1103 9.9668 19.0967C9.9507 19.0679 9.93945 19.0353 9.93945 19V17.4004C9.93945 17.3647 9.95044 17.3317 9.9668 17.3027C9.97444 17.2892 9.98271 17.276 9.99316 17.2646C9.99862 17.2588 10.0056 17.2542 10.0117 17.249C10.0238 17.2388 10.0365 17.2289 10.0508 17.2217C10.0775 17.2083 10.1077 17.2003 10.1396 17.2002H13V19.2002Z" fill="white"/>
<path d="M6.83984 11C7.39204 11.0001 7.83984 11.4478 7.83984 12C7.83984 12.5522 7.39204 12.9999 6.83984 13C6.28771 12.9998 5.83984 12.5522 5.83984 12C5.83984 11.4478 6.28771 11.0002 6.83984 11Z" fill="white"/>
<path d="M13 13H10.1396L10.0996 12.9961C10.0823 12.9925 10.0662 12.9852 10.0508 12.9775C10.0364 12.9703 10.0238 12.9606 10.0117 12.9502C10.0056 12.945 9.99862 12.9405 9.99316 12.9346C9.98272 12.9232 9.9744 12.9101 9.9668 12.8965C9.9507 12.8677 9.93945 12.8351 9.93945 12.7998V11.2002C9.93945 11.1645 9.95044 11.1315 9.9668 11.1025C9.97444 11.089 9.98271 11.0758 9.99316 11.0645C9.99862 11.0586 10.0056 11.054 10.0117 11.0488C10.0238 11.0386 10.0365 11.0287 10.0508 11.0215C10.0775 11.0081 10.1077 11.0001 10.1396 11H13V13Z" fill="white"/>
<path d="M21.0538 20.4971C21.4679 20.4971 21.8038 20.8329 21.8038 21.2471C21.8038 21.6612 21.4679 21.997 21.0538 21.9971H15.7696C15.3555 21.997 15.0196 21.6612 15.0196 21.2471C15.0196 20.8329 15.3555 20.4972 15.7696 20.4971H21.0538Z" fill="white"/>
<path d="M18.3897 11.0039C18.8039 11.004 19.1397 11.3397 19.1397 11.7539V16.7471L20.5489 15.3379C20.8417 15.0452 21.3166 15.0452 21.6094 15.3379C21.9021 15.6308 21.9021 16.1056 21.6094 16.3984L18.92 19.0879C18.8886 19.1193 18.8535 19.1453 18.8184 19.1699C18.7738 19.2012 18.7268 19.2289 18.6758 19.25C18.6492 19.261 18.6213 19.2676 18.5938 19.2754C18.5746 19.2808 18.556 19.2881 18.5362 19.292C18.5317 19.2929 18.527 19.2931 18.5225 19.2939C18.4793 19.3017 18.4351 19.3076 18.3897 19.3076L18.3126 19.3037C18.2937 19.3018 18.2753 19.2982 18.2569 19.2949C18.2514 19.2939 18.2458 19.2931 18.2403 19.292C18.2269 19.2893 18.2143 19.2837 18.2012 19.2803C18.168 19.2716 18.1346 19.2633 18.1026 19.25C18.0516 19.2288 18.0036 19.2023 17.959 19.1709C17.9242 19.1464 17.8906 19.1191 17.8594 19.0879L15.17 16.3984C14.8771 16.1055 14.8771 15.6308 15.17 15.3379C15.4629 15.0451 15.9377 15.045 16.2305 15.3379L17.6397 16.7471V11.7539C17.6397 11.3397 17.9755 11.0039 18.3897 11.0039Z" fill="white"/>
</svg>
