<svg width="24" height="24" viewBox="0 0 24 24" fill="none" xmlns="http://www.w3.org/2000/svg">
<path d="M9.18555 12.7002C10.7399 12.7002 12 13.9602 12 15.5146C11.9999 15.7826 11.7826 16 11.5146 16H5.48535C5.2174 16 5.00009 15.7826 5 15.5146C5 13.9602 6.26007 12.7002 7.81445 12.7002H9.18555Z" fill="white"/>
<path d="M18.5 13.25C18.9142 13.25 19.25 13.5858 19.25 14C19.25 14.4142 18.9142 14.75 18.5 14.75H14.5C14.0858 14.75 13.75 14.4142 13.75 14C13.75 13.5858 14.0858 13.25 14.5 13.25H18.5Z" fill="white"/>
<path d="M6.99121 8.54199C7.71364 7.81957 8.88493 7.81968 9.60742 8.54199C10.3299 9.26446 10.3299 10.4358 9.60742 11.1582C8.88492 11.8804 7.7136 11.8806 6.99121 11.1582C6.26896 10.4358 6.26903 9.26444 6.99121 8.54199Z" fill="white"/>
<path d="M18.5 9.25C18.9142 9.25 19.25 9.58579 19.25 10C19.25 10.4142 18.9142 10.75 18.5 10.75H14.5C14.0858 10.75 13.75 10.4142 13.75 10C13.75 9.58579 14.0858 9.25 14.5 9.25H18.5Z" fill="white"/>
<path fill-rule="evenodd" clip-rule="evenodd" d="M20 3.25C21.5192 3.25 22.75 4.48079 22.75 6V17.5C22.75 19.0192 21.5192 20.25 20 20.25H4C2.48079 20.25 1.25 19.0192 1.25 17.5V6.04102C1.25 4.4998 2.4998 3.25 4.04102 3.25H20ZM4.04102 4.75C3.32823 4.75 2.75 5.32823 2.75 6.04102V17.5C2.75 18.1908 3.30921 18.75 4 18.75H20C20.6908 18.75 21.25 18.1908 21.25 17.5V6C21.25 5.30921 20.6908 4.75 20 4.75H4.04102Z" fill="white"/>
</svg>
