<svg width="24" height="24" viewBox="0 0 24 24" fill="none" xmlns="http://www.w3.org/2000/svg">
<path d="M10.5 2.25006C10.0858 2.25006 9.75 2.58585 9.75 3.00006C9.75004 3.41424 10.0858 3.75006 10.5 3.75006H16C18.3472 3.75006 20.25 5.65285 20.25 8.00006V16.0001C20.25 18.3472 18.3472 20.2501 16 20.2501H8C5.72619 20.2501 3.86976 18.4643 3.75586 16.2188L3.75 16.0001V10.5001C3.75 10.0858 3.41422 9.75006 3 9.75006C2.58579 9.75006 2.25 10.0858 2.25 10.5001V16.0001L2.25782 16.296C2.41187 19.334 4.92364 21.7501 8 21.7501H16C19.1756 21.7501 21.75 19.1757 21.75 16.0001V8.00006C21.75 4.82442 19.1756 2.25006 16 2.25006H10.5Z" fill="white"/>
<path fill-rule="evenodd" clip-rule="evenodd" d="M10.5645 9.53619C10.4311 9.53619 10.3024 9.57285 10.1797 9.64752C10.0624 9.72219 9.97469 9.82173 9.91602 9.9444L7.75586 14.4161C7.66524 14.5973 7.62012 14.7336 7.62012 14.8243C7.62027 15.0162 7.77482 15.1867 8.08399 15.336C8.26521 15.4266 8.4065 15.4717 8.50782 15.4717C8.61425 15.4717 8.69972 15.4482 8.76368 15.4005C8.83301 15.3471 8.88154 15.2961 8.90821 15.2481C8.94021 15.2001 8.98281 15.1223 9.03614 15.0157L9.45215 14.1524H11.668L12.084 15.0157L12.2041 15.2559C12.2361 15.3092 12.2837 15.3603 12.3477 15.4083C12.4169 15.4562 12.5024 15.4795 12.6035 15.4796C12.7102 15.4796 12.8548 15.4345 13.0361 15.3438C13.3452 15.1892 13.4999 15.0161 13.5 14.8243C13.5 14.7336 13.4549 14.5973 13.3643 14.4161L11.2041 9.95221C11.0655 9.67502 10.8522 9.53634 10.5645 9.53619ZM11.0918 12.9678H10.0283L10.5557 11.8721L11.0918 12.9678Z" fill="white"/>
<path d="M15.4492 9.53619C15.1079 9.53619 14.8999 9.60801 14.8252 9.75201C14.7826 9.83195 14.7558 9.90387 14.7451 9.96783C14.7398 10.0265 14.7373 10.1176 14.7373 10.2403V14.6876C14.7373 14.8741 14.7532 15.0104 14.7852 15.0958C14.8492 15.2984 15.0681 15.4005 15.4414 15.4005C15.7826 15.4004 15.9908 15.3276 16.0654 15.1837C16.108 15.1038 16.1314 15.0342 16.1367 14.9756C16.1473 14.917 16.1533 14.824 16.1533 14.6963V10.2481C16.1533 10.0615 16.1399 9.92276 16.1133 9.83209C16.044 9.63476 15.8225 9.5362 15.4492 9.53619Z" fill="white"/>
<path d="M6.07618 2.05279C6.0643 1.98248 5.93571 1.98248 5.92383 2.05279C5.5404 4.33781 4.36621 5.53941 2.05372 5.92389C1.9823 5.93576 1.9823 6.06436 2.05372 6.07623C4.36619 6.46072 5.5404 7.66232 5.92383 9.94733C5.93585 10.0174 6.06416 10.0174 6.07618 9.94733C6.45961 7.66232 7.63381 6.46072 9.94629 6.07623C10.0177 6.06436 10.0177 5.93576 9.94629 5.92389C7.6338 5.53941 6.45961 4.33781 6.07618 2.05279Z" fill="white"/>
</svg>
