<svg width="24" height="24" viewBox="0 0 24 24" fill="none" xmlns="http://www.w3.org/2000/svg">
<path fill-rule="evenodd" clip-rule="evenodd" d="M11.2832 2.164C11.7447 1.98684 12.2553 1.98684 12.7168 2.164L18.7168 4.46868C19.4895 4.76557 20 5.50611 20 6.33392V14.8886C19.9997 18.3139 14.574 21.0633 12.6602 21.8495L12.499 21.9072C12.1192 22.0217 11.7156 22.0023 11.3438 21.8495C9.42973 21.0632 4.00029 18.3137 4 14.8886V6.33392C4 5.55805 4.44819 4.85926 5.14062 4.53021L5.2832 4.46868L11.2832 2.164ZM12 3.53118C11.939 3.53118 11.878 3.54222 11.8203 3.56439L5.82031 5.86907C5.62541 5.94412 5.5 6.12915 5.5 6.33392C5.5 8.29542 5.49999 11.9846 5.5 14.8886C5.50015 15.8142 6.28399 16.9095 7.83496 18.0361C9.28857 19.0919 10.9985 20.0866 11.9141 20.4628C11.9431 20.4747 11.9717 20.4801 12 20.4804V3.53118Z" fill="white"/>
</svg>
