<svg width="24" height="24" viewBox="0 0 24 24" fill="none" xmlns="http://www.w3.org/2000/svg">
<path d="M5.4713 18.9202C5.6499 18.7096 5.9658 18.6839 6.1764 18.8626C7.7999 20.2402 9.8597 20.9977 11.9889 21.0003C14.1181 21.0028 16.1794 20.25 17.8062 18.8762C18.0172 18.6981 18.3327 18.7249 18.5109 18.9358C18.6889 19.1468 18.6626 19.4623 18.4518 19.6404C16.6441 21.1668 14.3533 22.0032 11.9874 22.0003C9.6216 21.9974 7.3332 21.1556 5.5294 19.6248C5.319 19.4462 5.2931 19.1307 5.4713 18.9202Z" fill="white"/>
<path d="M12.0001 8.5002C13.933 8.5003 15.5001 10.0673 15.5001 12.0002C15.5 13.9331 13.9329 15.5002 12.0001 15.5002C10.0672 15.5002 8.5002 13.9331 8.5001 12.0002C8.5001 10.0673 10.0671 8.5002 12.0001 8.5002Z" fill="white"/>
<path d="M14.3595 2.784C14.4421 2.5206 14.7225 2.3734 14.986 2.4558C17.2439 3.1623 19.1785 4.6468 20.4455 6.6448C21.7124 8.6428 22.2298 11.0258 21.9059 13.3694C21.868 13.6428 21.6153 13.8339 21.3419 13.7962C21.0685 13.7583 20.8773 13.5057 20.9152 13.2322C21.2066 11.1229 20.741 8.9782 19.6007 7.1799C18.4604 5.3818 16.7192 4.0462 14.6871 3.4104C14.4237 3.328 14.2771 3.0475 14.3595 2.784Z" fill="white"/>
<path d="M9.0255 2.4529C9.2891 2.3708 9.5693 2.518 9.6515 2.7815C9.7335 3.0451 9.5864 3.3254 9.3229 3.4075C7.2899 4.0409 5.5473 5.3751 4.4049 7.1722C3.2626 8.9691 2.7945 11.1129 3.0836 13.2225C3.121 13.496 2.9294 13.7485 2.6559 13.7859C2.3824 13.8233 2.1305 13.6316 2.0929 13.3582C1.7716 11.0142 2.2919 8.6321 3.5611 6.6356C4.8305 4.6388 6.7666 3.1567 9.0255 2.4529Z" fill="white"/>
</svg>
