<svg width="24" height="24" viewBox="0 0 24 24" fill="none" xmlns="http://www.w3.org/2000/svg">
<path d="M18.7559 4.0127C20.0164 4.14082 21 5.20566 21 6.5V17.5L20.9873 17.7559C20.8677 18.9323 19.9323 19.8677 18.7559 19.9873L18.5 20H5.5C4.11929 20 3 18.8807 3 17.5V6.5C3 5.11929 4.11929 4 5.5 4H18.5L18.7559 4.0127ZM4.5 17.5C4.5 18.0523 4.94772 18.5 5.5 18.5H18.5C19.0523 18.5 19.5 18.0523 19.5 17.5V8H4.5V17.5ZM10 9.5C10.5523 9.5 11 9.94772 11 10.5V15.5C11 16.0177 10.6067 16.4438 10.1025 16.4951L10 16.5H7L6.89746 16.4951C6.42704 16.4472 6.0528 16.073 6.00488 15.6025L6 15.5V10.5C6 9.94772 6.44772 9.5 7 9.5H10ZM17.5 15C17.7761 15 18 15.2239 18 15.5C18 15.7761 17.7761 16 17.5 16H13C12.7239 16 12.5 15.7761 12.5 15.5C12.5 15.2239 12.7239 15 13 15H17.5ZM7 15.5H10V10.5H7V15.5ZM16.5 12.5C16.7761 12.5 17 12.7239 17 13C17 13.2761 16.7761 13.5 16.5 13.5H13C12.7239 13.5 12.5 13.2761 12.5 13C12.5 12.7239 12.7239 12.5 13 12.5H16.5ZM17.5 10C17.7761 10 18 10.2239 18 10.5C18 10.7761 17.7761 11 17.5 11H13C12.7239 11 12.5 10.7761 12.5 10.5C12.5 10.2239 12.7239 10 13 10H17.5ZM13.25 5.25C12.8358 5.25 12.5 5.58579 12.5 6C12.5 6.41421 12.8358 6.75 13.25 6.75C13.6642 6.75 14 6.41421 14 6C14 5.58579 13.6642 5.25 13.25 5.25ZM15.75 5.25C15.3358 5.25 15 5.58579 15 6C15 6.41421 15.3358 6.75 15.75 6.75C16.1642 6.75 16.5 6.41421 16.5 6C16.5 5.58579 16.1642 5.25 15.75 5.25ZM18.25 5.25C17.8358 5.25 17.5 5.58579 17.5 6C17.5 6.41421 17.8358 6.75 18.25 6.75C18.6642 6.75 19 6.41421 19 6C19 5.58579 18.6642 5.25 18.25 5.25Z" fill="white"/>
</svg>
