<svg width="24" height="24" viewBox="0 0 24 24" fill="none" xmlns="http://www.w3.org/2000/svg">
<path fill-rule="evenodd" clip-rule="evenodd" d="M11.4365 4.23529C13.2919 4.28969 15.0505 5.07828 16.3242 6.42865C17.5978 7.77917 18.2827 9.58091 18.2285 11.4365C18.183 12.9883 17.6211 14.4699 16.6493 15.6591L20.4951 19.5048C20.7684 19.7782 20.7684 20.2217 20.4951 20.4951C20.2217 20.7684 19.7782 20.7684 19.5048 20.4951L15.6591 16.6494C14.3588 17.712 12.7158 18.2779 11.0263 18.2285C9.1708 18.1741 7.41232 17.3855 6.13861 16.0351C4.86479 14.6845 4.18006 12.882 4.23431 11.0263C4.28874 9.17088 5.0783 7.41326 6.42865 6.13959C7.77919 4.8658 9.58076 4.18104 11.4365 4.23529ZM10.1708 11.8349C10.0438 12.089 9.78401 12.2499 9.49994 12.2499H5.82806C6.02148 13.2756 6.50317 14.2337 7.2304 15.0048C8.23127 16.066 9.61316 16.6868 11.0712 16.7294C12.529 16.7719 13.9438 16.233 15.0048 15.2324C15.8549 14.4305 16.4218 13.3842 16.6357 12.2499H13.9638L13.1708 13.8349C13.0438 14.089 12.784 14.2499 12.4999 14.2499C12.2159 14.2499 11.9561 14.089 11.829 13.8349L10.4999 11.1767L10.1708 11.8349ZM11.3915 5.73334C9.93377 5.69087 8.51893 6.22981 7.45794 7.23041C6.47508 8.15744 5.87064 9.41138 5.75286 10.7499H9.03607L9.82904 9.16498C9.95608 8.91093 10.2159 8.74997 10.4999 8.74994C10.784 8.74994 11.0438 8.91094 11.1708 9.16498L12.4999 11.8232L12.829 11.165L12.8827 11.0742C13.0214 10.8731 13.2513 10.75 13.4999 10.7499H16.7089C16.6011 9.52396 16.0852 8.36228 15.2324 7.45795C14.2315 6.39689 12.8495 5.77596 11.3915 5.73334Z" fill="white"/>
</svg>
