<svg width="24" height="24" viewBox="0 0 24 24" fill="none" xmlns="http://www.w3.org/2000/svg">
<path fill-rule="evenodd" clip-rule="evenodd" d="M10.1781 2.94816C10.9623 2.49555 11.9191 2.45837 12.7364 2.84798L19.3088 5.98163C20.3366 6.47177 20.9558 7.54432 20.8664 8.67951L20.294 15.9382C20.2228 16.8407 19.7122 17.6508 18.9281 18.1036L13.8216 21.0518C13.0375 21.5043 12.0806 21.5417 11.2634 21.152L4.69101 18.0184C3.66336 17.5282 3.04407 16.4555 3.13339 15.3205L3.70575 8.06185C3.77691 7.15932 4.28774 6.34925 5.07164 5.8964L10.1781 2.94816ZM5.82164 7.19544C5.46555 7.4013 5.23362 7.7694 5.20124 8.17947L4.62889 15.4381C4.58832 15.954 4.86982 16.4416 5.33689 16.6644L11.9092 19.7981C12.2806 19.9751 12.7153 19.9583 13.0716 19.7528L15.1919 18.5287L14.3335 17.0419C13.5392 17.2626 12.6728 16.9738 12.179 16.2887C12.1396 16.234 12.1021 16.177 12.0676 16.1174L11.6677 15.4247C11.547 15.2155 11.5947 14.9548 11.7685 14.8004L11.8508 14.7417L10.9509 13.183C10.8129 12.944 10.895 12.6382 11.1339 12.5C11.373 12.3619 11.6788 12.4439 11.8169 12.683L12.7168 14.2417L13.5828 13.7417L12.6829 12.183C12.5449 11.944 12.6271 11.6382 12.8659 11.5C13.1051 11.3619 13.4109 11.4439 13.5489 11.683L14.4488 13.2417L14.5417 13.1994C14.7622 13.126 15.0111 13.2155 15.1318 13.4247L15.5318 14.1174C15.5662 14.177 15.5977 14.2375 15.6253 14.299C15.9718 15.0694 15.7883 15.9644 15.1995 16.5419L16.0579 18.0287L18.1781 16.8046C18.5344 16.5988 18.7661 16.2306 18.7985 15.8205L19.3709 8.56189C19.4116 8.04584 19.1302 7.55837 18.6629 7.33558L12.0905 4.20193C11.7191 4.02496 11.2845 4.04158 10.9281 4.2472L8.80791 5.47132L9.95195 7.45286C10.8099 7.21395 11.7523 7.57137 12.2183 8.37825L12.6817 9.18084C12.8197 9.41999 12.7378 9.72578 12.4986 9.86386L9.90056 11.3639C9.66146 11.5017 9.35556 11.4199 9.21755 11.1808L8.75417 10.3782C8.2885 9.57149 8.45048 8.57644 9.08593 7.95286L7.94188 5.97132L5.82164 7.19544Z" fill="white"/>
</svg>
