<svg width="24" height="24" viewBox="0 0 24 24" fill="none" xmlns="http://www.w3.org/2000/svg">
<path fill-rule="evenodd" clip-rule="evenodd" d="M13.8799 4C14.4322 4 14.8799 4.44771 14.8799 5V8.75977C14.8799 9.31207 14.4322 9.75977 13.8799 9.75977H12.75V11.25H19C19.4142 11.25 19.75 11.5858 19.75 12V14.25H21C21.5523 14.25 22 14.6977 22 15.25V19.0098C22 19.5621 21.5523 20.0097 21 20.0098H17.2402C16.6879 20.0098 16.2402 19.5621 16.2402 19.0098V15.25C16.2403 14.6977 16.6879 14.25 17.2402 14.25H18.25V12.75H12.75V14.25H13.8799C14.4322 14.25 14.8799 14.6977 14.8799 15.25V19.0098C14.8799 19.5621 14.4322 20.0098 13.8799 20.0098H10.1201C9.56781 20.0098 9.12012 19.5621 9.12012 19.0098V15.25C9.12014 14.6977 9.56782 14.25 10.1201 14.25H11.25V12.75H5.75V14.25H6.75977C7.31206 14.25 7.75974 14.6977 7.75977 15.25V19.0098C7.75977 19.5621 7.31207 20.0098 6.75977 20.0098H3C2.44771 20.0097 2 19.5621 2 19.0098V15.25C2.00002 14.6977 2.44773 14.25 3 14.25H4.25V12C4.25 11.5858 4.58579 11.25 5 11.25H11.25V9.75977H10.1201C9.56781 9.75977 9.12012 9.31207 9.12012 8.75977V5C9.12014 4.44771 9.56782 4 10.1201 4H13.8799ZM3.5 18.5098H6.25977V15.75H3.5V18.5098ZM10.6201 18.5098H13.3799V15.75H10.6201V18.5098ZM17.7402 18.5098H20.5V15.75H17.7402V18.5098ZM10.6201 8.25977H13.3799V5.5H10.6201V8.25977Z" fill="white"/>
</svg>
