<svg width="25" height="25" viewBox="0 0 25 25" fill="none" xmlns="http://www.w3.org/2000/svg">
<path d="M4.81405 8.36328C4.83374 8.36385 4.85312 8.36725 4.87264 8.37012C4.89068 8.37274 4.90864 8.3753 4.92635 8.37988C4.9427 8.38414 4.95828 8.39056 4.9742 8.39648C4.99294 8.40343 5.01194 8.40968 5.02987 8.41895C5.05268 8.43075 5.07323 8.44637 5.09432 8.46191C5.10481 8.46964 5.11657 8.47572 5.12655 8.48438C5.12897 8.48648 5.13099 8.48905 5.13338 8.49121C5.16009 8.51532 5.18559 8.5423 5.2076 8.57324L7.43905 11.71C7.49776 11.7926 7.52726 11.8832 7.53182 11.9727C7.5447 12.2191 7.36915 12.4572 7.10506 12.4951C7.08105 12.4986 7.05625 12.5 7.03084 12.5H5.51912C5.77649 16.4089 9.0265 19.5 13.0006 19.5C16.8471 19.4997 20.0154 16.6036 20.4478 12.873C20.4721 12.6639 20.6455 12.5002 20.856 12.5H21.5631C21.7924 12.5 21.9757 12.6927 21.9527 12.9209C21.4913 17.4585 17.6599 20.9997 13.0006 21C8.1978 21 4.27469 17.238 4.01522 12.5H2.56893C2.21352 12.4999 1.98736 12.1484 2.09432 11.8389C2.10958 11.7946 2.13226 11.7514 2.1617 11.71L4.39217 8.57324C4.42203 8.53125 4.45853 8.49718 4.49666 8.46777C4.51344 8.45485 4.53045 8.44311 4.54842 8.43262C4.56416 8.42342 4.57979 8.41456 4.59627 8.40723C4.61479 8.39901 4.63369 8.39258 4.65291 8.38672C4.66946 8.38165 4.68581 8.37637 4.70272 8.37305C4.72211 8.36927 4.74166 8.36769 4.76131 8.36621C4.77891 8.36486 4.79641 8.36279 4.81405 8.36328Z" fill="white"/>
<path fill-rule="evenodd" clip-rule="evenodd" d="M16.3599 8.20703C17.0108 8.27336 17.5181 8.82279 17.5181 9.49121V13.3555C17.5188 14.0689 16.9403 14.6463 16.2281 14.6465H13.6842V15.2998H15.0758C15.3517 15.3 15.5758 15.5238 15.5758 15.7998C15.5758 16.0758 15.3517 16.2996 15.0758 16.2998H11.2916C11.0156 16.2996 10.7916 16.0758 10.7916 15.7998C10.7916 15.5238 11.0156 15.3 11.2916 15.2998H12.6842V14.6465H10.191C9.47785 14.6465 8.89998 14.0686 8.89998 13.3555V9.49121C8.89998 8.77806 9.47785 8.20022 10.191 8.2002H16.2271L16.3599 8.20703ZM10.191 9.2002C10.0301 9.20022 9.89998 9.33034 9.89998 9.49121V13.3555C9.89998 13.5163 10.0301 13.6465 10.191 13.6465H16.2281C16.3889 13.6463 16.5183 13.5161 16.5181 13.3564V9.49121C16.5181 9.3503 16.4186 9.23301 16.2857 9.20605L16.2271 9.2002H10.191Z" fill="white"/>
<path d="M18.0142 5.0332C18.1401 4.84541 18.3974 4.79831 18.5748 4.93848C20.1144 6.15533 21.2469 7.86304 21.734 9.82715C21.7944 10.0707 21.6049 10.2995 21.3541 10.2998H20.6217C20.4359 10.2996 20.276 10.1711 20.2262 9.99219C19.8034 8.46745 18.9109 7.13856 17.7144 6.16992C17.5476 6.03479 17.5042 5.79461 17.6236 5.61621L18.0142 5.0332Z" fill="white"/>
<path d="M8.95565 3.95996C9.17721 3.8484 9.43988 3.97797 9.49959 4.21875L9.6744 4.92285C9.71983 5.10666 9.62938 5.29627 9.46248 5.38574C8.92332 5.67479 8.42327 6.02762 7.97323 6.43457C7.65547 6.72178 7.16283 6.73843 6.85994 6.43555C6.57751 6.15305 6.56502 5.69546 6.85701 5.42285C7.4802 4.84105 8.1865 4.34731 8.95565 3.95996Z" fill="white"/>
<path d="M13.0006 3C13.9931 3.00005 14.9478 3.16256 15.8404 3.45996C16.0822 3.54075 16.1718 3.83015 16.0299 4.04199L15.6197 4.65527C15.5187 4.80607 15.3287 4.86846 15.1549 4.81641C14.4726 4.61156 13.7495 4.50005 13.0006 4.5C12.7369 4.5 12.4761 4.51339 12.2193 4.54004C12.0137 4.5614 11.8189 4.43306 11.7691 4.23242L11.5982 3.54688C11.5423 3.32087 11.6913 3.09449 11.9224 3.06641C12.2759 3.02348 12.6357 3 13.0006 3Z" fill="white"/>
</svg>
