<svg width="24" height="24" viewBox="0 0 24 24" fill="none" xmlns="http://www.w3.org/2000/svg">
<path fill-rule="evenodd" clip-rule="evenodd" d="M12 3C16.9706 3 21 7.02944 21 12C21 16.9706 16.9706 21 12 21C7.02944 21 3 16.9706 3 12C3 7.02944 7.02944 3 12 3ZM8.83203 16.5C8.9814 16.8612 9.1463 17.1971 9.32617 17.5029C9.98825 18.6285 10.7602 19.2452 11.5 19.4355V16.5H8.83203ZM12.5 19.4355C13.2398 19.2452 14.0117 18.6285 14.6738 17.5029C14.8537 17.1971 15.0186 16.8612 15.168 16.5H12.5V19.4355ZM6 16.5C6.79294 17.5556 7.85788 18.3947 9.09082 18.9141C8.5591 18.2663 8.10644 17.4452 7.75879 16.5H6ZM16.2402 16.5C15.8925 17.4453 15.44 18.2663 14.9082 18.9141C16.1415 18.3947 17.2069 17.5558 18 16.5H16.2402ZM8.00977 12.5C8.0495 13.5852 8.21767 14.5988 8.48145 15.5H11.5V12.5H8.00977ZM16.9902 12.5C16.9539 13.5646 16.8016 14.5761 16.5557 15.5H18.6338C19.1128 14.5939 19.4105 13.5783 19.4814 12.5H16.9902ZM12.5 15.5H15.5186C15.7823 14.5988 15.9505 13.5852 15.9902 12.5H12.5V15.5ZM4.51855 12.5C4.58955 13.5783 4.88718 14.5939 5.36621 15.5H7.44336C7.19748 14.5761 7.04511 13.5645 7.00879 12.5H4.51855ZM8.48145 8.5C8.21767 9.40117 8.0495 10.4148 8.00977 11.5H11.5V8.5H8.48145ZM16.5566 8.5C16.8025 9.42387 16.9549 10.4355 16.9912 11.5H19.4814C19.4105 10.4217 19.1128 9.40607 18.6338 8.5H16.5566ZM12.5 11.5H15.9902C15.9505 10.4148 15.7823 9.40117 15.5186 8.5H12.5V11.5ZM5.36621 8.5C4.88718 9.40607 4.58955 10.4217 4.51855 11.5H7.00977C7.04609 10.4355 7.19747 9.42385 7.44336 8.5H5.36621ZM11.5 4.56348C10.7601 4.75371 9.98832 5.37141 9.32617 6.49707C9.1463 6.8029 8.9814 7.13877 8.83203 7.5H11.5V4.56348ZM14.9082 5.08496C15.4403 5.73291 15.8934 6.5543 16.2412 7.5H18C17.2068 6.44409 16.1416 5.60433 14.9082 5.08496ZM12.5 7.5H15.168C15.0186 7.13877 14.8537 6.8029 14.6738 6.49707C14.0117 5.37141 13.2399 4.75371 12.5 4.56348V7.5ZM9.09473 5.08398C7.86008 5.60326 6.7938 6.44328 6 7.5H7.75879C8.10701 6.55333 8.56189 5.73221 9.09473 5.08398Z" fill="white"/>
</svg>
