<svg width="24" height="24" viewBox="0 0 24 24" fill="none" xmlns="http://www.w3.org/2000/svg">
<path fill-rule="evenodd" clip-rule="evenodd" d="M12 3C15.2642 3 18.1026 3.63913 19.6797 4.08301C20.482 4.30895 20.9999 5.05225 21 5.88574V18.1143L20.9941 18.2695C20.9342 19.0387 20.4318 19.7052 19.6797 19.917L19.0303 20.0908C17.3859 20.5105 14.8561 21 12 21C9.1439 21 6.61409 20.5105 4.96973 20.0908L4.32031 19.917C3.56823 19.7052 3.06585 19.0387 3.00586 18.2695L3 18.1143V5.88574C3.00011 5.05225 3.51804 4.30895 4.32031 4.08301C5.89738 3.63913 8.73576 3 12 3ZM4.5 18.1143C4.5001 18.3337 4.62592 18.4441 4.72754 18.4727C6.22576 18.8943 8.91957 19.5 12 19.5C15.0804 19.5 17.7742 18.8943 19.2725 18.4727C19.3741 18.4441 19.4999 18.3337 19.5 18.1143V15.5498H4.5V18.1143ZM4.5 14.0498H19.5V9.9502H4.5V14.0498ZM12 4.5C8.91957 4.5 6.22576 5.10568 4.72754 5.52734C4.62592 5.55594 4.5001 5.66625 4.5 5.88574V8.4502H19.5V5.88574C19.4999 5.66625 19.3741 5.55594 19.2725 5.52734C17.7742 5.10568 15.0804 4.5 12 4.5Z" fill="white"/>
</svg>
